<?xml version="1.0" encoding="UTF-8" standalone="no"?>
<!DOCTYPE svg PUBLIC "-//W3C//DTD SVG 1.1//EN"
 "http://www.w3.org/Graphics/SVG/1.1/DTD/svg11.dtd">
<!-- Generated by graphviz version 2.40.1 (20161225.0304)
 -->
<!-- Title: G Pages: 1 -->
<svg width="1328pt" height="1463pt"
 viewBox="0.00 0.00 1328.20 1462.56" xmlns="http://www.w3.org/2000/svg" xmlns:xlink="http://www.w3.org/1999/xlink">
<g id="graph0" class="graph" transform="scale(1 1) rotate(0) translate(21.6 1440.9568)">
<title>G</title>
<polygon fill="#111111" stroke="transparent" points="-21.6,21.6 -21.6,-1440.9568 1306.6,-1440.9568 1306.6,21.6 -21.6,21.6"/>
<!-- ../category/action.js -->
<g id="node1" class="node">
<title>../category/action.js</title>
<path fill="none" stroke="#cfffac" d="M1265.3333,-858.0879C1265.3333,-858.0879 1139.6667,-858.0879 1139.6667,-858.0879 1135.8333,-858.0879 1132,-854.2546 1132,-850.4213 1132,-850.4213 1132,-842.7546 1132,-842.7546 1132,-838.9213 1135.8333,-835.0879 1139.6667,-835.0879 1139.6667,-835.0879 1265.3333,-835.0879 1265.3333,-835.0879 1269.1667,-835.0879 1273,-838.9213 1273,-842.7546 1273,-842.7546 1273,-850.4213 1273,-850.4213 1273,-854.2546 1269.1667,-858.0879 1265.3333,-858.0879"/>
<text text-anchor="middle" x="1202.5" y="-842.8879" font-family="Arial" font-size="14.00" fill="#cfffac">../category/action.js</text>
</g>
<!-- ../category/constants.js -->
<g id="node2" class="node">
<title>../category/constants.js</title>
<path fill="none" stroke="#cfffac" d="M1277.3333,-698.0879C1277.3333,-698.0879 1127.6667,-698.0879 1127.6667,-698.0879 1123.8333,-698.0879 1120,-694.2546 1120,-690.4213 1120,-690.4213 1120,-682.7546 1120,-682.7546 1120,-678.9213 1123.8333,-675.0879 1127.6667,-675.0879 1127.6667,-675.0879 1277.3333,-675.0879 1277.3333,-675.0879 1281.1667,-675.0879 1285,-678.9213 1285,-682.7546 1285,-682.7546 1285,-690.4213 1285,-690.4213 1285,-694.2546 1281.1667,-698.0879 1277.3333,-698.0879"/>
<text text-anchor="middle" x="1202.5" y="-682.8879" font-family="Arial" font-size="14.00" fill="#cfffac">../category/constants.js</text>
</g>
<!-- ../category/reducer.js -->
<g id="node3" class="node">
<title>../category/reducer.js</title>
<path fill="none" stroke="#c6c5fe" d="M831.8333,-738.0879C831.8333,-738.0879 696.1667,-738.0879 696.1667,-738.0879 692.3333,-738.0879 688.5,-734.2546 688.5,-730.4213 688.5,-730.4213 688.5,-722.7546 688.5,-722.7546 688.5,-718.9213 692.3333,-715.0879 696.1667,-715.0879 696.1667,-715.0879 831.8333,-715.0879 831.8333,-715.0879 835.6667,-715.0879 839.5,-718.9213 839.5,-722.7546 839.5,-722.7546 839.5,-730.4213 839.5,-730.4213 839.5,-734.2546 835.6667,-738.0879 831.8333,-738.0879"/>
<text text-anchor="middle" x="764" y="-722.8879" font-family="Arial" font-size="14.00" fill="#c6c5fe">../category/reducer.js</text>
</g>
<!-- ../category/reducer.js&#45;&gt;../category/action.js -->
<g id="edge1" class="edge">
<title>../category/reducer.js&#45;&gt;../category/action.js</title>
<path fill="none" stroke="#757575" d="M838.7307,-738.0908C918.5759,-750.8259 1039.6386,-771.5405 1084,-786.5879 1116.7735,-797.7048 1151.8467,-816.4081 1175.2596,-829.9822"/>
<polygon fill="#757575" stroke="#757575" points="1173.5407,-833.0317 1183.9343,-835.087 1177.0909,-826.9988 1173.5407,-833.0317"/>
</g>
<!-- ../category/reducer.js&#45;&gt;../category/constants.js -->
<g id="edge2" class="edge">
<title>../category/reducer.js&#45;&gt;../category/constants.js</title>
<path fill="none" stroke="#757575" d="M833.2305,-715.0528C853.7163,-711.9441 876.2221,-708.8263 897,-706.5879 968.0623,-698.9324 1048.762,-693.8011 1109.3673,-690.6545"/>
<polygon fill="#757575" stroke="#757575" points="1109.8696,-694.1335 1119.6781,-690.1282 1109.5127,-687.1426 1109.8696,-694.1335"/>
</g>
<!-- ../product/action.js -->
<g id="node4" class="node">
<title>../product/action.js</title>
<path fill="none" stroke="#cfffac" d="M1049.8333,-818.0879C1049.8333,-818.0879 931.1667,-818.0879 931.1667,-818.0879 927.3333,-818.0879 923.5,-814.2546 923.5,-810.4213 923.5,-810.4213 923.5,-802.7546 923.5,-802.7546 923.5,-798.9213 927.3333,-795.0879 931.1667,-795.0879 931.1667,-795.0879 1049.8333,-795.0879 1049.8333,-795.0879 1053.6667,-795.0879 1057.5,-798.9213 1057.5,-802.7546 1057.5,-802.7546 1057.5,-810.4213 1057.5,-810.4213 1057.5,-814.2546 1053.6667,-818.0879 1049.8333,-818.0879"/>
<text text-anchor="middle" x="990.5" y="-802.8879" font-family="Arial" font-size="14.00" fill="#cfffac">../product/action.js</text>
</g>
<!-- ../category/reducer.js&#45;&gt;../product/action.js -->
<g id="edge3" class="edge">
<title>../category/reducer.js&#45;&gt;../product/action.js</title>
<path fill="none" stroke="#757575" d="M822.0667,-738.1071C835.2383,-741.8151 848.9014,-746.5716 861,-752.5879 879.1496,-761.6132 878.8927,-771.478 897,-780.5879 905.9177,-785.0745 915.716,-788.8771 925.5096,-792.0719"/>
<polygon fill="#757575" stroke="#757575" points="924.682,-795.4789 935.2688,-795.0669 926.7358,-788.787 924.682,-795.4789"/>
</g>
<!-- ../user/action.js -->
<g id="node5" class="node">
<title>../user/action.js</title>
<path fill="none" stroke="#cfffac" d="M1039.3333,-658.0879C1039.3333,-658.0879 941.6667,-658.0879 941.6667,-658.0879 937.8333,-658.0879 934,-654.2546 934,-650.4213 934,-650.4213 934,-642.7546 934,-642.7546 934,-638.9213 937.8333,-635.0879 941.6667,-635.0879 941.6667,-635.0879 1039.3333,-635.0879 1039.3333,-635.0879 1043.1667,-635.0879 1047,-638.9213 1047,-642.7546 1047,-642.7546 1047,-650.4213 1047,-650.4213 1047,-654.2546 1043.1667,-658.0879 1039.3333,-658.0879"/>
<text text-anchor="middle" x="990.5" y="-642.8879" font-family="Arial" font-size="14.00" fill="#cfffac">../user/action.js</text>
</g>
<!-- ../category/reducer.js&#45;&gt;../user/action.js -->
<g id="edge4" class="edge">
<title>../category/reducer.js&#45;&gt;../user/action.js</title>
<path fill="none" stroke="#757575" d="M822.0667,-715.0688C835.2383,-711.3607 848.9014,-706.6042 861,-700.5879 879.1496,-691.5626 878.8927,-681.6979 897,-672.5879 905.9177,-668.1013 915.716,-664.2988 925.5096,-661.104"/>
<polygon fill="#757575" stroke="#757575" points="926.7358,-664.3889 935.2688,-658.109 924.682,-657.6969 926.7358,-664.3889"/>
</g>
<!-- remote/api.js -->
<g id="node6" class="node">
<title>remote/api.js</title>
<path fill="none" stroke="#cfffac" d="M1032.3333,-898.0879C1032.3333,-898.0879 948.6667,-898.0879 948.6667,-898.0879 944.8333,-898.0879 941,-894.2546 941,-890.4213 941,-890.4213 941,-882.7546 941,-882.7546 941,-878.9213 944.8333,-875.0879 948.6667,-875.0879 948.6667,-875.0879 1032.3333,-875.0879 1032.3333,-875.0879 1036.1667,-875.0879 1040,-878.9213 1040,-882.7546 1040,-882.7546 1040,-890.4213 1040,-890.4213 1040,-894.2546 1036.1667,-898.0879 1032.3333,-898.0879"/>
<text text-anchor="middle" x="990.5" y="-882.8879" font-family="Arial" font-size="14.00" fill="#cfffac">remote/api.js</text>
</g>
<!-- ../category/reducer.js&#45;&gt;remote/api.js -->
<g id="edge5" class="edge">
<title>../category/reducer.js&#45;&gt;remote/api.js</title>
<path fill="none" stroke="#757575" d="M786.8376,-738.1937C807.3449,-749.1817 837.7178,-766.894 861,-786.5879 879.5144,-802.2489 878.5559,-811.8442 897,-827.5879 916.1953,-843.9729 940.3377,-859.0909 959.2818,-869.921"/>
<polygon fill="#757575" stroke="#757575" points="957.6859,-873.0389 968.1196,-874.88 961.1113,-866.9342 957.6859,-873.0389"/>
</g>
<!-- remote/constants.js -->
<g id="node7" class="node">
<title>remote/constants.js</title>
<path fill="none" stroke="#cfffac" d="M1054.3333,-617.0879C1054.3333,-617.0879 926.6667,-617.0879 926.6667,-617.0879 922.8333,-617.0879 919,-613.2546 919,-609.4213 919,-609.4213 919,-601.7546 919,-601.7546 919,-597.9213 922.8333,-594.0879 926.6667,-594.0879 926.6667,-594.0879 1054.3333,-594.0879 1054.3333,-594.0879 1058.1667,-594.0879 1062,-597.9213 1062,-601.7546 1062,-601.7546 1062,-609.4213 1062,-609.4213 1062,-613.2546 1058.1667,-617.0879 1054.3333,-617.0879"/>
<text text-anchor="middle" x="990.5" y="-601.8879" font-family="Arial" font-size="14.00" fill="#cfffac">remote/constants.js</text>
</g>
<!-- ../category/reducer.js&#45;&gt;remote/constants.js -->
<g id="edge6" class="edge">
<title>../category/reducer.js&#45;&gt;remote/constants.js</title>
<path fill="none" stroke="#757575" d="M835.8139,-714.9604C844.9089,-711.3724 853.6041,-706.6914 861,-700.5879 889.2089,-677.3084 868.3204,-649.285 897,-626.5879 900.873,-623.5228 905.1051,-620.8862 909.561,-618.62"/>
<polygon fill="#757575" stroke="#757575" points="911.239,-621.7053 918.9782,-614.4696 908.4159,-615.2998 911.239,-621.7053"/>
</g>
<!-- tree/selectable.js -->
<g id="node8" class="node">
<title>tree/selectable.js</title>
<path fill="none" stroke="#cfffac" d="M1045.3333,-555.0879C1045.3333,-555.0879 935.6667,-555.0879 935.6667,-555.0879 931.8333,-555.0879 928,-551.2546 928,-547.4213 928,-547.4213 928,-539.7546 928,-539.7546 928,-535.9213 931.8333,-532.0879 935.6667,-532.0879 935.6667,-532.0879 1045.3333,-532.0879 1045.3333,-532.0879 1049.1667,-532.0879 1053,-535.9213 1053,-539.7546 1053,-539.7546 1053,-547.4213 1053,-547.4213 1053,-551.2546 1049.1667,-555.0879 1045.3333,-555.0879"/>
<text text-anchor="middle" x="990.5" y="-539.8879" font-family="Arial" font-size="14.00" fill="#cfffac">tree/selectable.js</text>
</g>
<!-- ../category/reducer.js&#45;&gt;tree/selectable.js -->
<g id="edge7" class="edge">
<title>../category/reducer.js&#45;&gt;tree/selectable.js</title>
<path fill="none" stroke="#757575" d="M792.2775,-715.0598C813.5566,-705.1656 842.1756,-689.0936 861,-667.5879 887.2152,-637.6387 868.9756,-613.8515 897,-585.5879 908.4087,-574.0819 923.5303,-565.4474 938.2803,-559.0974"/>
<polygon fill="#757575" stroke="#757575" points="939.8991,-562.2192 947.8768,-555.2472 937.2926,-555.7226 939.8991,-562.2192"/>
</g>
<!-- tree/tree.js -->
<g id="node9" class="node">
<title>tree/tree.js</title>
<path fill="none" stroke="#cfffac" d="M1024.8333,-738.0879C1024.8333,-738.0879 956.1667,-738.0879 956.1667,-738.0879 952.3333,-738.0879 948.5,-734.2546 948.5,-730.4213 948.5,-730.4213 948.5,-722.7546 948.5,-722.7546 948.5,-718.9213 952.3333,-715.0879 956.1667,-715.0879 956.1667,-715.0879 1024.8333,-715.0879 1024.8333,-715.0879 1028.6667,-715.0879 1032.5,-718.9213 1032.5,-722.7546 1032.5,-722.7546 1032.5,-730.4213 1032.5,-730.4213 1032.5,-734.2546 1028.6667,-738.0879 1024.8333,-738.0879"/>
<text text-anchor="middle" x="990.5" y="-722.8879" font-family="Arial" font-size="14.00" fill="#cfffac">tree/tree.js</text>
</g>
<!-- ../category/reducer.js&#45;&gt;tree/tree.js -->
<g id="edge8" class="edge">
<title>../category/reducer.js&#45;&gt;tree/tree.js</title>
<path fill="none" stroke="#757575" d="M839.7361,-726.5879C871.9212,-726.5879 908.6635,-726.5879 937.818,-726.5879"/>
<polygon fill="#757575" stroke="#757575" points="938.1934,-730.088 948.1934,-726.5879 938.1933,-723.088 938.1934,-730.088"/>
</g>
<!-- ../category/repository.js -->
<g id="node10" class="node">
<title>../category/repository.js</title>
<path fill="none" stroke="#c6c5fe" d="M623.3333,-975.0879C623.3333,-975.0879 473.6667,-975.0879 473.6667,-975.0879 469.8333,-975.0879 466,-971.2546 466,-967.4213 466,-967.4213 466,-959.7546 466,-959.7546 466,-955.9213 469.8333,-952.0879 473.6667,-952.0879 473.6667,-952.0879 623.3333,-952.0879 623.3333,-952.0879 627.1667,-952.0879 631,-955.9213 631,-959.7546 631,-959.7546 631,-967.4213 631,-967.4213 631,-971.2546 627.1667,-975.0879 623.3333,-975.0879"/>
<text text-anchor="middle" x="548.5" y="-959.8879" font-family="Arial" font-size="14.00" fill="#c6c5fe">../category/repository.js</text>
</g>
<!-- ../category/repository.js&#45;&gt;../category/action.js -->
<g id="edge9" class="edge">
<title>../category/repository.js&#45;&gt;../category/action.js</title>
<path fill="none" stroke="#757575" d="M563.0367,-975.2647C580.4515,-989.6947 609.9132,-1015.5461 631,-1041.5879 650.3308,-1065.4611 640.2129,-1085.5527 667,-1100.5879 747.8079,-1145.9442 1005.8411,-1150.3704 1084,-1100.5879 1167.1642,-1047.6175 1192.9171,-919.3662 1200.0402,-868.1954"/>
<polygon fill="#757575" stroke="#757575" points="1203.5167,-868.6017 1201.3226,-858.2365 1196.574,-867.7076 1203.5167,-868.6017"/>
</g>
<!-- ../category/repository.js&#45;&gt;../category/constants.js -->
<g id="edge10" class="edge">
<title>../category/repository.js&#45;&gt;../category/constants.js</title>
<path fill="none" stroke="#757575" d="M599.0961,-975.1274C703.2697,-995.6787 943.6809,-1026.1156 1084,-907.5879 1114.0955,-882.1662 1101.9702,-861.6154 1120,-826.5879 1142.522,-782.8333 1172.655,-733.7066 1189.5705,-706.8431"/>
<polygon fill="#757575" stroke="#757575" points="1192.5775,-708.6365 1194.9683,-698.3149 1186.6627,-704.8927 1192.5775,-708.6365"/>
</g>
<!-- ../category/repository.js&#45;&gt;../product/action.js -->
<g id="edge12" class="edge">
<title>../category/repository.js&#45;&gt;../product/action.js</title>
<path fill="none" stroke="#757575" d="M593.9901,-952.0812C655.4795,-936.0048 768.1147,-904.7023 861,-868.5879 895.7613,-855.0726 934.1268,-836.1762 960.0087,-822.8059"/>
<polygon fill="#757575" stroke="#757575" points="961.6964,-825.8732 968.9495,-818.1502 958.4634,-819.6645 961.6964,-825.8732"/>
</g>
<!-- ../category/repository.js&#45;&gt;remote/api.js -->
<g id="edge15" class="edge">
<title>../category/repository.js&#45;&gt;remote/api.js</title>
<path fill="none" stroke="#757575" d="M631.1626,-964.2082C694.7874,-963.0197 784.4895,-957.709 861,-939.5879 895.7951,-931.3469 933.3903,-915.0607 959.0622,-902.7056"/>
<polygon fill="#757575" stroke="#757575" points="960.8454,-905.7295 968.2867,-898.1878 957.7665,-899.443 960.8454,-905.7295"/>
</g>
<!-- ../category/repository.js&#45;&gt;remote/constants.js -->
<g id="edge16" class="edge">
<title>../category/repository.js&#45;&gt;remote/constants.js</title>
<path fill="none" stroke="#757575" d="M557.7416,-952.0406C575.2009,-929.5608 612.9007,-877.7191 631,-827.5879 649.463,-776.4492 625.8235,-621.0921 667,-585.5879 749.4892,-514.4621 892.1814,-562.3278 956.8778,-589.9068"/>
<polygon fill="#757575" stroke="#757575" points="955.6406,-593.1855 966.206,-593.9748 958.4389,-586.7691 955.6406,-593.1855"/>
</g>
<!-- ../category/selector.js -->
<g id="node11" class="node">
<title>../category/selector.js</title>
<path fill="none" stroke="#cfffac" d="M1270.8333,-190.0879C1270.8333,-190.0879 1134.1667,-190.0879 1134.1667,-190.0879 1130.3333,-190.0879 1126.5,-186.2546 1126.5,-182.4213 1126.5,-182.4213 1126.5,-174.7546 1126.5,-174.7546 1126.5,-170.9213 1130.3333,-167.0879 1134.1667,-167.0879 1134.1667,-167.0879 1270.8333,-167.0879 1270.8333,-167.0879 1274.6667,-167.0879 1278.5,-170.9213 1278.5,-174.7546 1278.5,-174.7546 1278.5,-182.4213 1278.5,-182.4213 1278.5,-186.2546 1274.6667,-190.0879 1270.8333,-190.0879"/>
<text text-anchor="middle" x="1202.5" y="-174.8879" font-family="Arial" font-size="14.00" fill="#cfffac">../category/selector.js</text>
</g>
<!-- ../category/repository.js&#45;&gt;../category/selector.js -->
<g id="edge11" class="edge">
<title>../category/repository.js&#45;&gt;../category/selector.js</title>
<path fill="none" stroke="#757575" d="M558.4308,-951.8288C576.7008,-929.3969 615.2142,-878.2058 631,-827.5879 651.0818,-763.1946 619.8026,-269.777 667,-221.5879 697.7107,-190.232 972.7725,-181.7395 1116.2476,-179.4405"/>
<polygon fill="#757575" stroke="#757575" points="1116.4002,-182.9387 1126.3452,-179.2854 1116.2926,-175.9395 1116.4002,-182.9387"/>
</g>
<!-- ../user/repository.js -->
<g id="node12" class="node">
<title>../user/repository.js</title>
<path fill="none" stroke="#c6c5fe" d="M824.8333,-658.0879C824.8333,-658.0879 703.1667,-658.0879 703.1667,-658.0879 699.3333,-658.0879 695.5,-654.2546 695.5,-650.4213 695.5,-650.4213 695.5,-642.7546 695.5,-642.7546 695.5,-638.9213 699.3333,-635.0879 703.1667,-635.0879 703.1667,-635.0879 824.8333,-635.0879 824.8333,-635.0879 828.6667,-635.0879 832.5,-638.9213 832.5,-642.7546 832.5,-642.7546 832.5,-650.4213 832.5,-650.4213 832.5,-654.2546 828.6667,-658.0879 824.8333,-658.0879"/>
<text text-anchor="middle" x="764" y="-642.8879" font-family="Arial" font-size="14.00" fill="#c6c5fe">../user/repository.js</text>
</g>
<!-- ../category/repository.js&#45;&gt;../user/repository.js -->
<g id="edge13" class="edge">
<title>../category/repository.js&#45;&gt;../user/repository.js</title>
<path fill="none" stroke="#757575" d="M557.3776,-951.9009C574.2148,-929.1822 610.8973,-876.9499 631,-827.5879 657.6746,-762.0887 617.8406,-723.4312 667,-672.5879 672.4535,-666.9476 678.987,-662.4869 686.0522,-658.9652"/>
<polygon fill="#757575" stroke="#757575" points="687.4563,-662.1714 695.2447,-654.9887 684.677,-655.7467 687.4563,-662.1714"/>
</g>
<!-- modal/index.js -->
<g id="node13" class="node">
<title>modal/index.js</title>
<path fill="none" stroke="#cfffac" d="M811.3333,-1171.0879C811.3333,-1171.0879 716.6667,-1171.0879 716.6667,-1171.0879 712.8333,-1171.0879 709,-1167.2546 709,-1163.4213 709,-1163.4213 709,-1155.7546 709,-1155.7546 709,-1151.9213 712.8333,-1148.0879 716.6667,-1148.0879 716.6667,-1148.0879 811.3333,-1148.0879 811.3333,-1148.0879 815.1667,-1148.0879 819,-1151.9213 819,-1155.7546 819,-1155.7546 819,-1163.4213 819,-1163.4213 819,-1167.2546 815.1667,-1171.0879 811.3333,-1171.0879"/>
<text text-anchor="middle" x="764" y="-1155.8879" font-family="Arial" font-size="14.00" fill="#cfffac">modal/index.js</text>
</g>
<!-- ../category/repository.js&#45;&gt;modal/index.js -->
<g id="edge14" class="edge">
<title>../category/repository.js&#45;&gt;modal/index.js</title>
<path fill="none" stroke="#757575" d="M564.4812,-975.1685C582.7434,-989.1195 612.4882,-1014.131 631,-1041.5879 655.5455,-1077.9942 634.2765,-1104.3121 667,-1133.5879 676.0347,-1141.6707 687.3173,-1147.2809 698.9603,-1151.1653"/>
<polygon fill="#757575" stroke="#757575" points="698.2032,-1154.5904 708.7837,-1154.0387 700.1685,-1147.8719 698.2032,-1154.5904"/>
</g>
<!-- ../user/repository.js&#45;&gt;../user/action.js -->
<g id="edge86" class="edge">
<title>../user/repository.js&#45;&gt;../user/action.js</title>
<path fill="none" stroke="#757575" d="M832.5721,-646.5879C861.4471,-646.5879 894.9368,-646.5879 923.6265,-646.5879"/>
<polygon fill="#757575" stroke="#757575" points="923.9618,-650.088 933.9618,-646.5879 923.9618,-643.088 923.9618,-650.088"/>
</g>
<!-- ../user/repository.js&#45;&gt;remote/api.js -->
<g id="edge88" class="edge">
<title>../user/repository.js&#45;&gt;remote/api.js</title>
<path fill="none" stroke="#757575" d="M793.9573,-658.1926C815.5451,-668.0115 843.7956,-684.0976 861,-706.5879 895.0899,-751.1517 863.1101,-782.8719 897,-827.5879 911.2475,-846.3868 933.3623,-860.7332 952.508,-870.5698"/>
<polygon fill="#757575" stroke="#757575" points="951.101,-873.7779 961.6208,-875.0361 954.1817,-867.4922 951.101,-873.7779"/>
</g>
<!-- ../user/repository.js&#45;&gt;remote/constants.js -->
<g id="edge89" class="edge">
<title>../user/repository.js&#45;&gt;remote/constants.js</title>
<path fill="none" stroke="#757575" d="M827.6956,-635.058C855.4355,-630.0367 888.1163,-624.121 916.8902,-618.9124"/>
<polygon fill="#757575" stroke="#757575" points="917.6738,-622.3276 926.8904,-617.1023 916.4269,-615.4395 917.6738,-622.3276"/>
</g>
<!-- ../user/constants.js -->
<g id="node37" class="node">
<title>../user/constants.js</title>
<path fill="none" stroke="#cfffac" d="M1051.3333,-509.0879C1051.3333,-509.0879 929.6667,-509.0879 929.6667,-509.0879 925.8333,-509.0879 922,-505.2546 922,-501.4213 922,-501.4213 922,-493.7546 922,-493.7546 922,-489.9213 925.8333,-486.0879 929.6667,-486.0879 929.6667,-486.0879 1051.3333,-486.0879 1051.3333,-486.0879 1055.1667,-486.0879 1059,-489.9213 1059,-493.7546 1059,-493.7546 1059,-501.4213 1059,-501.4213 1059,-505.2546 1055.1667,-509.0879 1051.3333,-509.0879"/>
<text text-anchor="middle" x="990.5" y="-493.8879" font-family="Arial" font-size="14.00" fill="#cfffac">../user/constants.js</text>
</g>
<!-- ../user/repository.js&#45;&gt;../user/constants.js -->
<g id="edge87" class="edge">
<title>../user/repository.js&#45;&gt;../user/constants.js</title>
<path fill="none" stroke="#757575" d="M832.8665,-641.635C843.152,-638.4022 852.9779,-633.6089 861,-626.5879 897.4913,-594.6506 861.6136,-556.7452 897,-523.5879 901.599,-519.2787 906.8502,-515.6736 912.465,-512.659"/>
<polygon fill="#757575" stroke="#757575" points="913.9841,-515.8123 921.5458,-508.3913 911.0067,-509.4771 913.9841,-515.8123"/>
</g>
<!-- ../product/reducer.js -->
<g id="node14" class="node">
<title>../product/reducer.js</title>
<path fill="none" stroke="#c6c5fe" d="M827.8333,-818.0879C827.8333,-818.0879 700.1667,-818.0879 700.1667,-818.0879 696.3333,-818.0879 692.5,-814.2546 692.5,-810.4213 692.5,-810.4213 692.5,-802.7546 692.5,-802.7546 692.5,-798.9213 696.3333,-795.0879 700.1667,-795.0879 700.1667,-795.0879 827.8333,-795.0879 827.8333,-795.0879 831.6667,-795.0879 835.5,-798.9213 835.5,-802.7546 835.5,-802.7546 835.5,-810.4213 835.5,-810.4213 835.5,-814.2546 831.6667,-818.0879 827.8333,-818.0879"/>
<text text-anchor="middle" x="764" y="-802.8879" font-family="Arial" font-size="14.00" fill="#c6c5fe">../product/reducer.js</text>
</g>
<!-- ../product/reducer.js&#45;&gt;../category/action.js -->
<g id="edge17" class="edge">
<title>../product/reducer.js&#45;&gt;../category/action.js</title>
<path fill="none" stroke="#757575" d="M829.115,-818.1279C850.6657,-821.6104 874.809,-825.1515 897,-827.5879 973.0572,-835.9387 1060.2005,-840.9063 1121.8996,-843.6547"/>
<polygon fill="#757575" stroke="#757575" points="1121.8181,-847.1544 1131.9611,-844.0933 1122.123,-840.161 1121.8181,-847.1544"/>
</g>
<!-- ../product/reducer.js&#45;&gt;../product/action.js -->
<g id="edge18" class="edge">
<title>../product/reducer.js&#45;&gt;../product/action.js</title>
<path fill="none" stroke="#757575" d="M835.666,-806.5879C860.2706,-806.5879 887.9162,-806.5879 912.9649,-806.5879"/>
<polygon fill="#757575" stroke="#757575" points="913.1558,-810.088 923.1558,-806.5879 913.1557,-803.088 913.1558,-810.088"/>
</g>
<!-- ../product/reducer.js&#45;&gt;../user/action.js -->
<g id="edge19" class="edge">
<title>../product/reducer.js&#45;&gt;../user/action.js</title>
<path fill="none" stroke="#757575" d="M787.2545,-795.0372C807.7658,-784.2652 837.9023,-766.9779 861,-747.5879 879.5729,-731.9964 878.616,-722.4018 897,-706.5879 916.477,-689.8339 940.9993,-674.2706 960.0433,-663.195"/>
<polygon fill="#757575" stroke="#757575" points="961.9585,-666.1318 968.906,-658.1328 958.4867,-660.0534 961.9585,-666.1318"/>
</g>
<!-- ../product/reducer.js&#45;&gt;remote/api.js -->
<g id="edge20" class="edge">
<title>../product/reducer.js&#45;&gt;remote/api.js</title>
<path fill="none" stroke="#757575" d="M835.7158,-817.5723C844.4836,-820.2219 853.1192,-823.5094 861,-827.5879 880.2765,-837.5642 878.0209,-850.0568 897,-860.5879 907.4739,-866.3997 919.3413,-870.9887 931.0206,-874.5859"/>
<polygon fill="#757575" stroke="#757575" points="930.1746,-877.9843 940.7522,-877.3793 932.106,-871.256 930.1746,-877.9843"/>
</g>
<!-- ../product/reducer.js&#45;&gt;remote/constants.js -->
<g id="edge21" class="edge">
<title>../product/reducer.js&#45;&gt;remote/constants.js</title>
<path fill="none" stroke="#757575" d="M794.8641,-794.8918C816.3289,-785.2615 844.0314,-769.5987 861,-747.5879 895.2565,-703.1522 855.9955,-664.8852 897,-626.5879 900.6818,-623.1492 904.8008,-620.2302 909.2021,-617.756"/>
<polygon fill="#757575" stroke="#757575" points="911.0661,-620.7446 918.583,-613.2782 908.0507,-614.4273 911.0661,-620.7446"/>
</g>
<!-- ../product/repository.js -->
<g id="node15" class="node">
<title>../product/repository.js</title>
<path fill="none" stroke="#c6c5fe" d="M619.8333,-1271.0879C619.8333,-1271.0879 477.1667,-1271.0879 477.1667,-1271.0879 473.3333,-1271.0879 469.5,-1267.2546 469.5,-1263.4213 469.5,-1263.4213 469.5,-1255.7546 469.5,-1255.7546 469.5,-1251.9213 473.3333,-1248.0879 477.1667,-1248.0879 477.1667,-1248.0879 619.8333,-1248.0879 619.8333,-1248.0879 623.6667,-1248.0879 627.5,-1251.9213 627.5,-1255.7546 627.5,-1255.7546 627.5,-1263.4213 627.5,-1263.4213 627.5,-1267.2546 623.6667,-1271.0879 619.8333,-1271.0879"/>
<text text-anchor="middle" x="548.5" y="-1255.8879" font-family="Arial" font-size="14.00" fill="#c6c5fe">../product/repository.js</text>
</g>
<!-- ../product/repository.js&#45;&gt;../category/action.js -->
<g id="edge22" class="edge">
<title>../product/repository.js&#45;&gt;../category/action.js</title>
<path fill="none" stroke="#757575" d="M558.0886,-1271.1647C576.5384,-1292.4176 619.3893,-1336.9973 667,-1353.5879 748.4205,-1381.96 781.304,-1386.4942 861,-1353.5879 1077.1406,-1264.3439 1174.2031,-953.1296 1197.0492,-868.1631"/>
<polygon fill="#757575" stroke="#757575" points="1200.4762,-868.8929 1199.6295,-858.332 1193.7055,-867.1159 1200.4762,-868.8929"/>
</g>
<!-- ../product/repository.js&#45;&gt;../product/action.js -->
<g id="edge23" class="edge">
<title>../product/repository.js&#45;&gt;../product/action.js</title>
<path fill="none" stroke="#757575" d="M575.6549,-1271.2758C599.2826,-1280.7722 634.7081,-1293.4107 667,-1298.5879 752.135,-1312.2374 797.5506,-1356.9698 861,-1298.5879 931.8896,-1233.3601 847.331,-949.1288 897,-866.5879 908.9646,-846.705 930.3347,-832.2585 949.6271,-822.5301"/>
<polygon fill="#757575" stroke="#757575" points="951.3525,-825.5853 958.8807,-818.1302 948.3466,-819.2635 951.3525,-825.5853"/>
</g>
<!-- ../product/repository.js&#45;&gt;remote/api.js -->
<g id="edge27" class="edge">
<title>../product/repository.js&#45;&gt;remote/api.js</title>
<path fill="none" stroke="#757575" d="M563.7931,-1271.1685C613.4473,-1307.2915 772.0693,-1410.8765 861,-1331.5879 913.2594,-1284.9947 871.982,-1083.9797 897,-1018.5879 914.2201,-973.5782 950.3664,-929.599 972.3282,-905.4929"/>
<polygon fill="#757575" stroke="#757575" points="974.9463,-907.8171 979.1846,-898.1068 969.816,-903.0547 974.9463,-907.8171"/>
</g>
<!-- ../product/repository.js&#45;&gt;remote/constants.js -->
<g id="edge28" class="edge">
<title>../product/repository.js&#45;&gt;remote/constants.js</title>
<path fill="none" stroke="#757575" d="M567.0632,-1247.9524C586.7893,-1234.4385 617.0205,-1210.1719 631,-1180.5879 676.132,-1085.0776 597.0192,-785.7195 667,-706.5879 725.2621,-640.7074 784.8669,-711.616 861,-667.5879 881.9922,-655.448 876.146,-638.9637 897,-626.5879 900.8876,-624.2809 905.0032,-622.227 909.2548,-620.3985"/>
<polygon fill="#757575" stroke="#757575" points="910.669,-623.6045 918.7434,-616.7449 908.1536,-617.072 910.669,-623.6045"/>
</g>
<!-- ../product/repository.js&#45;&gt;../user/repository.js -->
<g id="edge24" class="edge">
<title>../product/repository.js&#45;&gt;../user/repository.js</title>
<path fill="none" stroke="#757575" d="M567.0915,-1247.9657C586.8425,-1234.4636 617.0954,-1210.2071 631,-1180.5879 679.0925,-1078.1428 594.9767,-759.8837 667,-672.5879 672.149,-666.3471 678.6188,-661.5144 685.7611,-657.7846"/>
<polygon fill="#757575" stroke="#757575" points="687.4016,-660.8857 695.1192,-653.6269 684.5594,-654.4886 687.4016,-660.8857"/>
</g>
<!-- ../product/repository.js&#45;&gt;modal/index.js -->
<g id="edge26" class="edge">
<title>../product/repository.js&#45;&gt;modal/index.js</title>
<path fill="none" stroke="#757575" d="M573.6423,-1247.921C612.2473,-1230.0068 686.2089,-1195.6859 729.7011,-1175.5039"/>
<polygon fill="#757575" stroke="#757575" points="731.4201,-1178.5648 739.0178,-1171.1806 728.4736,-1172.2151 731.4201,-1178.5648"/>
</g>
<!-- form/constants.js -->
<g id="node16" class="node">
<title>form/constants.js</title>
<path fill="none" stroke="#cfffac" d="M1045.8333,-1091.0879C1045.8333,-1091.0879 935.1667,-1091.0879 935.1667,-1091.0879 931.3333,-1091.0879 927.5,-1087.2546 927.5,-1083.4213 927.5,-1083.4213 927.5,-1075.7546 927.5,-1075.7546 927.5,-1071.9213 931.3333,-1068.0879 935.1667,-1068.0879 935.1667,-1068.0879 1045.8333,-1068.0879 1045.8333,-1068.0879 1049.6667,-1068.0879 1053.5,-1071.9213 1053.5,-1075.7546 1053.5,-1075.7546 1053.5,-1083.4213 1053.5,-1083.4213 1053.5,-1087.2546 1049.6667,-1091.0879 1045.8333,-1091.0879"/>
<text text-anchor="middle" x="990.5" y="-1075.8879" font-family="Arial" font-size="14.00" fill="#cfffac">form/constants.js</text>
</g>
<!-- ../product/repository.js&#45;&gt;form/constants.js -->
<g id="edge25" class="edge">
<title>../product/repository.js&#45;&gt;form/constants.js</title>
<path fill="none" stroke="#757575" d="M562.7228,-1271.1016C583.9203,-1287.4409 625.7451,-1316.592 667,-1327.5879 750.3136,-1349.7941 787.2593,-1372.271 861,-1327.5879 944.8054,-1276.8062 976.9477,-1152.0463 986.808,-1101.4431"/>
<polygon fill="#757575" stroke="#757575" points="990.3071,-1101.7667 988.6755,-1091.2983 983.4228,-1100.4994 990.3071,-1101.7667"/>
</g>
<!-- ../product/selector.js -->
<g id="node17" class="node">
<title>../product/selector.js</title>
<path fill="none" stroke="#cfffac" d="M1055.3333,-374.0879C1055.3333,-374.0879 925.6667,-374.0879 925.6667,-374.0879 921.8333,-374.0879 918,-370.2546 918,-366.4213 918,-366.4213 918,-358.7546 918,-358.7546 918,-354.9213 921.8333,-351.0879 925.6667,-351.0879 925.6667,-351.0879 1055.3333,-351.0879 1055.3333,-351.0879 1059.1667,-351.0879 1063,-354.9213 1063,-358.7546 1063,-358.7546 1063,-366.4213 1063,-366.4213 1063,-370.2546 1059.1667,-374.0879 1055.3333,-374.0879"/>
<text text-anchor="middle" x="990.5" y="-358.8879" font-family="Arial" font-size="14.00" fill="#cfffac">../product/selector.js</text>
</g>
<!-- ../product/validation.js -->
<g id="node18" class="node">
<title>../product/validation.js</title>
<path fill="none" stroke="#cfffac" d="M834.3333,-1289.0879C834.3333,-1289.0879 693.6667,-1289.0879 693.6667,-1289.0879 689.8333,-1289.0879 686,-1285.2546 686,-1281.4213 686,-1281.4213 686,-1273.7546 686,-1273.7546 686,-1269.9213 689.8333,-1266.0879 693.6667,-1266.0879 693.6667,-1266.0879 834.3333,-1266.0879 834.3333,-1266.0879 838.1667,-1266.0879 842,-1269.9213 842,-1273.7546 842,-1273.7546 842,-1281.4213 842,-1281.4213 842,-1285.2546 838.1667,-1289.0879 834.3333,-1289.0879"/>
<text text-anchor="middle" x="764" y="-1273.8879" font-family="Arial" font-size="14.00" fill="#cfffac">../product/validation.js</text>
</g>
<!-- ../render/app.jsx -->
<g id="node19" class="node">
<title>../render/app.jsx</title>
<path fill="none" stroke="#c6c5fe" d="M406.3333,-455.0879C406.3333,-455.0879 301.6667,-455.0879 301.6667,-455.0879 297.8333,-455.0879 294,-451.2546 294,-447.4213 294,-447.4213 294,-439.7546 294,-439.7546 294,-435.9213 297.8333,-432.0879 301.6667,-432.0879 301.6667,-432.0879 406.3333,-432.0879 406.3333,-432.0879 410.1667,-432.0879 414,-435.9213 414,-439.7546 414,-439.7546 414,-447.4213 414,-447.4213 414,-451.2546 410.1667,-455.0879 406.3333,-455.0879"/>
<text text-anchor="middle" x="354" y="-439.8879" font-family="Arial" font-size="14.00" fill="#c6c5fe">../render/app.jsx</text>
</g>
<!-- ../render/category/input.jsx -->
<g id="node20" class="node">
<title>../render/category/input.jsx</title>
<path fill="none" stroke="#c6c5fe" d="M1076.3333,-165.0879C1076.3333,-165.0879 904.6667,-165.0879 904.6667,-165.0879 900.8333,-165.0879 897,-161.2546 897,-157.4213 897,-157.4213 897,-149.7546 897,-149.7546 897,-145.9213 900.8333,-142.0879 904.6667,-142.0879 904.6667,-142.0879 1076.3333,-142.0879 1076.3333,-142.0879 1080.1667,-142.0879 1084,-145.9213 1084,-149.7546 1084,-149.7546 1084,-157.4213 1084,-157.4213 1084,-161.2546 1080.1667,-165.0879 1076.3333,-165.0879"/>
<text text-anchor="middle" x="990.5" y="-149.8879" font-family="Arial" font-size="14.00" fill="#c6c5fe">../render/category/input.jsx</text>
</g>
<!-- ../render/app.jsx&#45;&gt;../render/category/input.jsx -->
<g id="edge29" class="edge">
<title>../render/app.jsx&#45;&gt;../render/category/input.jsx</title>
<path fill="none" stroke="#757575" d="M357.6636,-432.0685C377.2318,-372.8752 475.762,-102.6778 667,-24.5879 746.8237,8.0072 781.3092,8.3308 861,-24.5879 914.6923,-46.7672 957.8151,-103.1905 978.029,-133.5414"/>
<polygon fill="#757575" stroke="#757575" points="975.1745,-135.5723 983.5532,-142.0568 981.0471,-131.7627 975.1745,-135.5723"/>
</g>
<!-- ../render/category/list.jsx -->
<g id="node21" class="node">
<title>../render/category/list.jsx</title>
<path fill="none" stroke="#c6c5fe" d="M842.8333,-414.0879C842.8333,-414.0879 685.1667,-414.0879 685.1667,-414.0879 681.3333,-414.0879 677.5,-410.2546 677.5,-406.4213 677.5,-406.4213 677.5,-398.7546 677.5,-398.7546 677.5,-394.9213 681.3333,-391.0879 685.1667,-391.0879 685.1667,-391.0879 842.8333,-391.0879 842.8333,-391.0879 846.6667,-391.0879 850.5,-394.9213 850.5,-398.7546 850.5,-398.7546 850.5,-406.4213 850.5,-406.4213 850.5,-410.2546 846.6667,-414.0879 842.8333,-414.0879"/>
<text text-anchor="middle" x="764" y="-398.8879" font-family="Arial" font-size="14.00" fill="#c6c5fe">../render/category/list.jsx</text>
</g>
<!-- ../render/app.jsx&#45;&gt;../render/category/list.jsx -->
<g id="edge30" class="edge">
<title>../render/app.jsx&#45;&gt;../render/category/list.jsx</title>
<path fill="none" stroke="#757575" d="M408.4832,-432.0333C426.6988,-428.5286 447.159,-424.978 466,-422.5879 532.8455,-414.1083 608.6128,-409.084 667.0206,-406.192"/>
<polygon fill="#757575" stroke="#757575" points="667.5281,-409.6717 677.3479,-405.6939 667.1908,-402.6798 667.5281,-409.6717"/>
</g>
<!-- ../render/common.jsx -->
<g id="node22" class="node">
<title>../render/common.jsx</title>
<path fill="none" stroke="#c6c5fe" d="M616.8333,-537.0879C616.8333,-537.0879 480.1667,-537.0879 480.1667,-537.0879 476.3333,-537.0879 472.5,-533.2546 472.5,-529.4213 472.5,-529.4213 472.5,-521.7546 472.5,-521.7546 472.5,-517.9213 476.3333,-514.0879 480.1667,-514.0879 480.1667,-514.0879 616.8333,-514.0879 616.8333,-514.0879 620.6667,-514.0879 624.5,-517.9213 624.5,-521.7546 624.5,-521.7546 624.5,-529.4213 624.5,-529.4213 624.5,-533.2546 620.6667,-537.0879 616.8333,-537.0879"/>
<text text-anchor="middle" x="548.5" y="-521.8879" font-family="Arial" font-size="14.00" fill="#c6c5fe">../render/common.jsx</text>
</g>
<!-- ../render/app.jsx&#45;&gt;../render/common.jsx -->
<g id="edge31" class="edge">
<title>../render/app.jsx&#45;&gt;../render/common.jsx</title>
<path fill="none" stroke="#757575" d="M375.4772,-455.259C397.7247,-467.0797 433.6946,-485.445 466,-498.5879 476.7968,-502.9804 488.6001,-507.1833 499.8163,-510.9101"/>
<polygon fill="#757575" stroke="#757575" points="498.8895,-514.2891 509.4817,-514.0556 501.0557,-507.6327 498.8895,-514.2891"/>
</g>
<!-- ../render/content.jsx -->
<g id="node23" class="node">
<title>../render/content.jsx</title>
<path fill="none" stroke="#c6c5fe" d="M612.3333,-455.0879C612.3333,-455.0879 484.6667,-455.0879 484.6667,-455.0879 480.8333,-455.0879 477,-451.2546 477,-447.4213 477,-447.4213 477,-439.7546 477,-439.7546 477,-435.9213 480.8333,-432.0879 484.6667,-432.0879 484.6667,-432.0879 612.3333,-432.0879 612.3333,-432.0879 616.1667,-432.0879 620,-435.9213 620,-439.7546 620,-439.7546 620,-447.4213 620,-447.4213 620,-451.2546 616.1667,-455.0879 612.3333,-455.0879"/>
<text text-anchor="middle" x="548.5" y="-439.8879" font-family="Arial" font-size="14.00" fill="#c6c5fe">../render/content.jsx</text>
</g>
<!-- ../render/app.jsx&#45;&gt;../render/content.jsx -->
<g id="edge32" class="edge">
<title>../render/app.jsx&#45;&gt;../render/content.jsx</title>
<path fill="none" stroke="#757575" d="M414.209,-443.5879C430.8099,-443.5879 449.1039,-443.5879 466.7048,-443.5879"/>
<polygon fill="#757575" stroke="#757575" points="466.9698,-447.088 476.9697,-443.5879 466.9697,-440.088 466.9698,-447.088"/>
</g>
<!-- ../render/modal.jsx -->
<g id="node24" class="node">
<title>../render/modal.jsx</title>
<path fill="none" stroke="#c6c5fe" d="M608.3333,-1073.0879C608.3333,-1073.0879 488.6667,-1073.0879 488.6667,-1073.0879 484.8333,-1073.0879 481,-1069.2546 481,-1065.4213 481,-1065.4213 481,-1057.7546 481,-1057.7546 481,-1053.9213 484.8333,-1050.0879 488.6667,-1050.0879 488.6667,-1050.0879 608.3333,-1050.0879 608.3333,-1050.0879 612.1667,-1050.0879 616,-1053.9213 616,-1057.7546 616,-1057.7546 616,-1065.4213 616,-1065.4213 616,-1069.2546 612.1667,-1073.0879 608.3333,-1073.0879"/>
<text text-anchor="middle" x="548.5" y="-1057.8879" font-family="Arial" font-size="14.00" fill="#c6c5fe">../render/modal.jsx</text>
</g>
<!-- ../render/app.jsx&#45;&gt;../render/modal.jsx -->
<g id="edge33" class="edge">
<title>../render/app.jsx&#45;&gt;../render/modal.jsx</title>
<path fill="none" stroke="#757575" d="M355.4429,-455.2953C364.2063,-525.2301 411.7251,-888.012 466,-984.5879 479.7343,-1009.0266 503.8888,-1030.2012 522.5245,-1044.1259"/>
<polygon fill="#757575" stroke="#757575" points="520.488,-1046.9724 530.6413,-1049.9992 524.5916,-1041.3014 520.488,-1046.9724"/>
</g>
<!-- ../render/product/list.jsx -->
<g id="node25" class="node">
<title>../render/product/list.jsx</title>
<path fill="none" stroke="#c6c5fe" d="M838.8333,-496.0879C838.8333,-496.0879 689.1667,-496.0879 689.1667,-496.0879 685.3333,-496.0879 681.5,-492.2546 681.5,-488.4213 681.5,-488.4213 681.5,-480.7546 681.5,-480.7546 681.5,-476.9213 685.3333,-473.0879 689.1667,-473.0879 689.1667,-473.0879 838.8333,-473.0879 838.8333,-473.0879 842.6667,-473.0879 846.5,-476.9213 846.5,-480.7546 846.5,-480.7546 846.5,-488.4213 846.5,-488.4213 846.5,-492.2546 842.6667,-496.0879 838.8333,-496.0879"/>
<text text-anchor="middle" x="764" y="-480.8879" font-family="Arial" font-size="14.00" fill="#c6c5fe">../render/product/list.jsx</text>
</g>
<!-- ../render/app.jsx&#45;&gt;../render/product/list.jsx -->
<g id="edge34" class="edge">
<title>../render/app.jsx&#45;&gt;../render/product/list.jsx</title>
<path fill="none" stroke="#757575" d="M408.4832,-455.1425C426.6988,-458.6472 447.159,-462.1979 466,-464.5879 534.4427,-473.2702 612.2387,-478.33 671.1773,-481.1875"/>
<polygon fill="#757575" stroke="#757575" points="671.0575,-484.6857 681.2116,-481.6616 671.3879,-477.6935 671.0575,-484.6857"/>
</g>
<!-- ../render/user/login.jsx -->
<g id="node26" class="node">
<title>../render/user/login.jsx</title>
<path fill="none" stroke="#c6c5fe" d="M619.8333,-294.0879C619.8333,-294.0879 477.1667,-294.0879 477.1667,-294.0879 473.3333,-294.0879 469.5,-290.2546 469.5,-286.4213 469.5,-286.4213 469.5,-278.7546 469.5,-278.7546 469.5,-274.9213 473.3333,-271.0879 477.1667,-271.0879 477.1667,-271.0879 619.8333,-271.0879 619.8333,-271.0879 623.6667,-271.0879 627.5,-274.9213 627.5,-278.7546 627.5,-278.7546 627.5,-286.4213 627.5,-286.4213 627.5,-290.2546 623.6667,-294.0879 619.8333,-294.0879"/>
<text text-anchor="middle" x="548.5" y="-278.8879" font-family="Arial" font-size="14.00" fill="#c6c5fe">../render/user/login.jsx</text>
</g>
<!-- ../render/app.jsx&#45;&gt;../render/user/login.jsx -->
<g id="edge35" class="edge">
<title>../render/app.jsx&#45;&gt;../render/user/login.jsx</title>
<path fill="none" stroke="#757575" d="M367.988,-432.0092C401.4103,-404.3434 486.1205,-334.2234 526.4741,-300.8202"/>
<polygon fill="#757575" stroke="#757575" points="528.9059,-303.3507 534.3774,-294.2781 524.4424,-297.9584 528.9059,-303.3507"/>
</g>
<!-- ../render/user/remote.jsx -->
<g id="node27" class="node">
<title>../render/user/remote.jsx</title>
<path fill="none" stroke="#c6c5fe" d="M842.8333,-254.0879C842.8333,-254.0879 685.1667,-254.0879 685.1667,-254.0879 681.3333,-254.0879 677.5,-250.2546 677.5,-246.4213 677.5,-246.4213 677.5,-238.7546 677.5,-238.7546 677.5,-234.9213 681.3333,-231.0879 685.1667,-231.0879 685.1667,-231.0879 842.8333,-231.0879 842.8333,-231.0879 846.6667,-231.0879 850.5,-234.9213 850.5,-238.7546 850.5,-238.7546 850.5,-246.4213 850.5,-246.4213 850.5,-250.2546 846.6667,-254.0879 842.8333,-254.0879"/>
<text text-anchor="middle" x="764" y="-238.8879" font-family="Arial" font-size="14.00" fill="#c6c5fe">../render/user/remote.jsx</text>
</g>
<!-- ../render/app.jsx&#45;&gt;../render/user/remote.jsx -->
<g id="edge36" class="edge">
<title>../render/app.jsx&#45;&gt;../render/user/remote.jsx</title>
<path fill="none" stroke="#757575" d="M357.0816,-431.9599C366.6386,-398.4874 399.2309,-301.7391 466,-261.5879 534.7388,-220.2523 629.2421,-221.9416 693.2575,-229.7478"/>
<polygon fill="#757575" stroke="#757575" points="692.8935,-233.2298 703.2612,-231.0475 693.7955,-226.2881 692.8935,-233.2298"/>
</g>
<!-- ../render/category/input.jsx&#45;&gt;../category/action.js -->
<g id="edge37" class="edge">
<title>../render/category/input.jsx&#45;&gt;../category/action.js</title>
<path fill="none" stroke="#757575" d="M998.2358,-165.2803C1016.7461,-193.9249 1063.5655,-270.4664 1084,-341.5879 1129.1365,-498.6839 1069.0733,-552.2724 1120,-707.5879 1135.095,-753.6245 1167.3515,-800.7856 1186.7571,-826.6168"/>
<polygon fill="#757575" stroke="#757575" points="1184.181,-829.0099 1193.0359,-834.8272 1189.7415,-824.7576 1184.181,-829.0099"/>
</g>
<!-- ../render/category/input.jsx&#45;&gt;../category/constants.js -->
<g id="edge38" class="edge">
<title>../render/category/input.jsx&#45;&gt;../category/constants.js</title>
<path fill="none" stroke="#757575" d="M996.954,-165.2156C1012.9684,-194.336 1055.303,-272.9847 1084,-341.5879 1134.1771,-461.5416 1180.09,-610.9956 1196.3042,-665.4762"/>
<polygon fill="#757575" stroke="#757575" points="1192.9493,-666.4737 1199.1435,-675.0691 1199.6614,-664.487 1192.9493,-666.4737"/>
</g>
<!-- ../render/category/input.jsx&#45;&gt;../category/selector.js -->
<g id="edge39" class="edge">
<title>../render/category/input.jsx&#45;&gt;../category/selector.js</title>
<path fill="none" stroke="#757575" d="M1084.1034,-164.6261C1094.7787,-165.885 1105.6241,-167.1639 1116.1985,-168.4109"/>
<polygon fill="#757575" stroke="#757575" points="1115.8981,-171.8996 1126.2393,-169.5949 1116.718,-164.9478 1115.8981,-171.8996"/>
</g>
<!-- ../render/category/list.jsx&#45;&gt;../category/action.js -->
<g id="edge40" class="edge">
<title>../render/category/list.jsx&#45;&gt;../category/action.js</title>
<path fill="none" stroke="#757575" d="M850.6703,-411.9207C934.3916,-422.7969 1052.9552,-443.7329 1084,-477.5879 1153.9285,-553.8466 1084.9637,-610.2337 1120,-707.5879 1136.4057,-753.1739 1168.2051,-800.4921 1187.174,-826.4734"/>
<polygon fill="#757575" stroke="#757575" points="1184.5337,-828.7889 1193.3021,-834.7357 1190.156,-824.6187 1184.5337,-828.7889"/>
</g>
<!-- ../render/category/list.jsx&#45;&gt;remote/constants.js -->
<g id="edge42" class="edge">
<title>../render/category/list.jsx&#45;&gt;remote/constants.js</title>
<path fill="none" stroke="#757575" d="M849.935,-414.2661C853.9174,-416.6259 857.6443,-419.3798 861,-422.5879 908.0612,-467.5797 854.9114,-514.9134 897,-564.5879 906.589,-575.9052 919.9006,-584.2047 933.4762,-590.2499"/>
<polygon fill="#757575" stroke="#757575" points="932.2932,-593.5473 942.8744,-594.0844 934.9376,-587.066 932.2932,-593.5473"/>
</g>
<!-- ../render/category/list.jsx&#45;&gt;tree/selectable.js -->
<g id="edge43" class="edge">
<title>../render/category/list.jsx&#45;&gt;tree/selectable.js</title>
<path fill="none" stroke="#757575" d="M848.6101,-414.23C853.0356,-416.5826 857.211,-419.3464 861,-422.5879 895.6258,-452.2105 863.2466,-487.975 897,-518.5879 903.2621,-524.2674 910.6742,-528.68 918.5424,-532.1045"/>
<polygon fill="#757575" stroke="#757575" points="917.3561,-535.3979 927.947,-535.6873 919.8482,-528.8565 917.3561,-535.3979"/>
</g>
<!-- ../render/category/list.jsx&#45;&gt;../category/selector.js -->
<g id="edge41" class="edge">
<title>../render/category/list.jsx&#45;&gt;../category/selector.js</title>
<path fill="none" stroke="#757575" d="M820.5222,-414.1269C888.4631,-424.8058 1003.3812,-432.4032 1084,-382.5879 1152.2572,-340.411 1185.4403,-243.3269 1197.259,-200.0664"/>
<polygon fill="#757575" stroke="#757575" points="1200.6707,-200.8537 1199.8118,-190.2938 1193.8979,-199.0845 1200.6707,-200.8537"/>
</g>
<!-- error.js -->
<g id="node29" class="node">
<title>error.js</title>
<path fill="none" stroke="#cfffac" d="M786.3333,-537.0879C786.3333,-537.0879 741.6667,-537.0879 741.6667,-537.0879 737.8333,-537.0879 734,-533.2546 734,-529.4213 734,-529.4213 734,-521.7546 734,-521.7546 734,-517.9213 737.8333,-514.0879 741.6667,-514.0879 741.6667,-514.0879 786.3333,-514.0879 786.3333,-514.0879 790.1667,-514.0879 794,-517.9213 794,-521.7546 794,-521.7546 794,-529.4213 794,-529.4213 794,-533.2546 790.1667,-537.0879 786.3333,-537.0879"/>
<text text-anchor="middle" x="764" y="-521.8879" font-family="Arial" font-size="14.00" fill="#cfffac">error.js</text>
</g>
<!-- ../render/common.jsx&#45;&gt;error.js -->
<g id="edge46" class="edge">
<title>../render/common.jsx&#45;&gt;error.js</title>
<path fill="none" stroke="#757575" d="M624.7805,-525.5879C658.1705,-525.5879 695.98,-525.5879 723.7617,-525.5879"/>
<polygon fill="#757575" stroke="#757575" points="723.8882,-529.088 733.8881,-525.5879 723.8881,-522.088 723.8882,-529.088"/>
</g>
<!-- remote/reducer.js -->
<g id="node30" class="node">
<title>remote/reducer.js</title>
<path fill="none" stroke="#c6c5fe" d="M820.3333,-859.0879C820.3333,-859.0879 707.6667,-859.0879 707.6667,-859.0879 703.8333,-859.0879 700,-855.2546 700,-851.4213 700,-851.4213 700,-843.7546 700,-843.7546 700,-839.9213 703.8333,-836.0879 707.6667,-836.0879 707.6667,-836.0879 820.3333,-836.0879 820.3333,-836.0879 824.1667,-836.0879 828,-839.9213 828,-843.7546 828,-843.7546 828,-851.4213 828,-851.4213 828,-855.2546 824.1667,-859.0879 820.3333,-859.0879"/>
<text text-anchor="middle" x="764" y="-843.8879" font-family="Arial" font-size="14.00" fill="#c6c5fe">remote/reducer.js</text>
</g>
<!-- ../render/common.jsx&#45;&gt;remote/reducer.js -->
<g id="edge47" class="edge">
<title>../render/common.jsx&#45;&gt;remote/reducer.js</title>
<path fill="none" stroke="#757575" d="M551.5054,-537.332C564.6996,-587.9975 618.9726,-787.1264 667,-827.5879 673.7835,-833.3028 681.7719,-837.5266 690.2041,-840.6282"/>
<polygon fill="#757575" stroke="#757575" points="689.2828,-844.0075 699.8723,-843.6729 691.3854,-837.3307 689.2828,-844.0075"/>
</g>
<!-- ../render/content.jsx&#45;&gt;../product/action.js -->
<g id="edge48" class="edge">
<title>../render/content.jsx&#45;&gt;../product/action.js</title>
<path fill="none" stroke="#757575" d="M572.9179,-455.2161C591.9807,-465.6415 617.4351,-482.8036 631,-505.5879 686.6268,-599.0216 591.378,-669.4502 667,-747.5879 675.5951,-756.469 820.6205,-780.3368 913.5464,-794.8489"/>
<polygon fill="#757575" stroke="#757575" points="913.0682,-798.3166 923.4876,-796.3968 914.1452,-791.3999 913.0682,-798.3166"/>
</g>
<!-- ../render/content.jsx&#45;&gt;form/constants.js -->
<g id="edge55" class="edge">
<title>../render/content.jsx&#45;&gt;form/constants.js</title>
<path fill="none" stroke="#757575" d="M573.719,-455.1912C592.9721,-465.5024 618.2876,-482.5215 631,-505.5879 678.6733,-592.0898 611.1394,-867.133 667,-948.5879 731.1943,-1042.1949 789.6271,-1022.7881 897,-1059.5879 903.4358,-1061.7937 910.2074,-1063.8058 917.0423,-1065.6297"/>
<polygon fill="#757575" stroke="#757575" points="916.5167,-1069.107 927.0698,-1068.168 918.2345,-1062.321 916.5167,-1069.107"/>
</g>
<!-- ../render/content.jsx&#45;&gt;../product/selector.js -->
<g id="edge49" class="edge">
<title>../render/content.jsx&#45;&gt;../product/selector.js</title>
<path fill="none" stroke="#757575" d="M556.0219,-431.7686C571.1064,-407.8511 605.7654,-351.8003 631,-302.5879 648.9754,-267.5325 633.9672,-243.055 667,-221.5879 739.2967,-174.6043 782.0599,-186.9074 861,-221.5879 917.4997,-246.4098 960.1643,-309.3966 979.3418,-342.1306"/>
<polygon fill="#757575" stroke="#757575" points="976.3326,-343.9192 984.3251,-350.8742 982.4142,-340.4531 976.3326,-343.9192"/>
</g>
<!-- ../render/content.jsx&#45;&gt;../render/category/input.jsx -->
<g id="edge50" class="edge">
<title>../render/content.jsx&#45;&gt;../render/category/input.jsx</title>
<path fill="none" stroke="#757575" d="M556.5101,-432.0015C572.4722,-408.5026 608.6314,-353.1674 631,-302.5879 652.6616,-253.6071 625.5606,-221.5162 667,-187.5879 738.1124,-129.3651 849.5508,-131.4289 921.3025,-140.6583"/>
<polygon fill="#757575" stroke="#757575" points="921.2092,-144.178 931.5914,-142.0657 922.158,-137.2426 921.2092,-144.178"/>
</g>
<!-- ../render/category/select.jsx -->
<g id="node28" class="node">
<title>../render/category/select.jsx</title>
<path fill="none" stroke="#c6c5fe" d="M853.3333,-98.0879C853.3333,-98.0879 674.6667,-98.0879 674.6667,-98.0879 670.8333,-98.0879 667,-94.2546 667,-90.4213 667,-90.4213 667,-82.7546 667,-82.7546 667,-78.9213 670.8333,-75.0879 674.6667,-75.0879 674.6667,-75.0879 853.3333,-75.0879 853.3333,-75.0879 857.1667,-75.0879 861,-78.9213 861,-82.7546 861,-82.7546 861,-90.4213 861,-90.4213 861,-94.2546 857.1667,-98.0879 853.3333,-98.0879"/>
<text text-anchor="middle" x="764" y="-82.8879" font-family="Arial" font-size="14.00" fill="#c6c5fe">../render/category/select.jsx</text>
</g>
<!-- ../render/content.jsx&#45;&gt;../render/category/select.jsx -->
<g id="edge51" class="edge">
<title>../render/content.jsx&#45;&gt;../render/category/select.jsx</title>
<path fill="none" stroke="#757575" d="M557.2777,-431.8498C574.2753,-408.5196 611.7037,-354.1146 631,-302.5879 661.1421,-222.0999 608.536,-175.5865 667,-112.5879 670.2225,-109.1155 673.8537,-106.0873 677.7706,-103.4481"/>
<polygon fill="#757575" stroke="#757575" points="679.8376,-106.2965 686.7538,-98.2705 676.342,-100.2317 679.8376,-106.2965"/>
</g>
<!-- ../render/product/input.jsx -->
<g id="node31" class="node">
<title>../render/product/input.jsx</title>
<path fill="none" stroke="#cfffac" d="M845.8333,-334.0879C845.8333,-334.0879 682.1667,-334.0879 682.1667,-334.0879 678.3333,-334.0879 674.5,-330.2546 674.5,-326.4213 674.5,-326.4213 674.5,-318.7546 674.5,-318.7546 674.5,-314.9213 678.3333,-311.0879 682.1667,-311.0879 682.1667,-311.0879 845.8333,-311.0879 845.8333,-311.0879 849.6667,-311.0879 853.5,-314.9213 853.5,-318.7546 853.5,-318.7546 853.5,-326.4213 853.5,-326.4213 853.5,-330.2546 849.6667,-334.0879 845.8333,-334.0879"/>
<text text-anchor="middle" x="764" y="-318.8879" font-family="Arial" font-size="14.00" fill="#cfffac">../render/product/input.jsx</text>
</g>
<!-- ../render/content.jsx&#45;&gt;../render/product/input.jsx -->
<g id="edge52" class="edge">
<title>../render/content.jsx&#45;&gt;../render/product/input.jsx</title>
<path fill="none" stroke="#757575" d="M559.7805,-431.7813C579.5988,-411.7212 622.7772,-370.9864 667,-348.5879 675.9238,-344.0681 685.72,-340.2682 695.5491,-337.0927"/>
<polygon fill="#757575" stroke="#757575" points="696.8022,-340.3703 705.3582,-334.1217 694.773,-333.6708 696.8022,-340.3703"/>
</g>
<!-- ../render/product/item.jsx -->
<g id="node32" class="node">
<title>../render/product/item.jsx</title>
<path fill="none" stroke="#c6c5fe" d="M843.8333,-455.0879C843.8333,-455.0879 684.1667,-455.0879 684.1667,-455.0879 680.3333,-455.0879 676.5,-451.2546 676.5,-447.4213 676.5,-447.4213 676.5,-439.7546 676.5,-439.7546 676.5,-435.9213 680.3333,-432.0879 684.1667,-432.0879 684.1667,-432.0879 843.8333,-432.0879 843.8333,-432.0879 847.6667,-432.0879 851.5,-435.9213 851.5,-439.7546 851.5,-439.7546 851.5,-447.4213 851.5,-447.4213 851.5,-451.2546 847.6667,-455.0879 843.8333,-455.0879"/>
<text text-anchor="middle" x="764" y="-439.8879" font-family="Arial" font-size="14.00" fill="#c6c5fe">../render/product/item.jsx</text>
</g>
<!-- ../render/content.jsx&#45;&gt;../render/product/item.jsx -->
<g id="edge53" class="edge">
<title>../render/content.jsx&#45;&gt;../render/product/item.jsx</title>
<path fill="none" stroke="#757575" d="M620.2584,-443.5879C635.0229,-443.5879 650.806,-443.5879 666.3089,-443.5879"/>
<polygon fill="#757575" stroke="#757575" points="666.4426,-447.088 676.4426,-443.5879 666.4425,-440.088 666.4426,-447.088"/>
</g>
<!-- form/action.js -->
<g id="node33" class="node">
<title>form/action.js</title>
<path fill="none" stroke="#cfffac" d="M1033.8333,-1050.0879C1033.8333,-1050.0879 947.1667,-1050.0879 947.1667,-1050.0879 943.3333,-1050.0879 939.5,-1046.2546 939.5,-1042.4213 939.5,-1042.4213 939.5,-1034.7546 939.5,-1034.7546 939.5,-1030.9213 943.3333,-1027.0879 947.1667,-1027.0879 947.1667,-1027.0879 1033.8333,-1027.0879 1033.8333,-1027.0879 1037.6667,-1027.0879 1041.5,-1030.9213 1041.5,-1034.7546 1041.5,-1034.7546 1041.5,-1042.4213 1041.5,-1042.4213 1041.5,-1046.2546 1037.6667,-1050.0879 1033.8333,-1050.0879"/>
<text text-anchor="middle" x="990.5" y="-1034.8879" font-family="Arial" font-size="14.00" fill="#cfffac">form/action.js</text>
</g>
<!-- ../render/content.jsx&#45;&gt;form/action.js -->
<g id="edge54" class="edge">
<title>../render/content.jsx&#45;&gt;form/action.js</title>
<path fill="none" stroke="#757575" d="M573.6078,-455.2531C592.798,-465.5993 618.0832,-482.6354 631,-505.5879 710.5116,-646.8761 576.4094,-734.1343 667,-868.5879 728.2407,-959.4808 854.1326,-1005.1141 929.54,-1025.1823"/>
<polygon fill="#757575" stroke="#757575" points="928.823,-1028.612 939.3812,-1027.7325 930.579,-1021.8358 928.823,-1028.612"/>
</g>
<!-- form/reducer.js -->
<g id="node34" class="node">
<title>form/reducer.js</title>
<path fill="none" stroke="#c6c5fe" d="M812.3333,-1091.0879C812.3333,-1091.0879 715.6667,-1091.0879 715.6667,-1091.0879 711.8333,-1091.0879 708,-1087.2546 708,-1083.4213 708,-1083.4213 708,-1075.7546 708,-1075.7546 708,-1071.9213 711.8333,-1068.0879 715.6667,-1068.0879 715.6667,-1068.0879 812.3333,-1068.0879 812.3333,-1068.0879 816.1667,-1068.0879 820,-1071.9213 820,-1075.7546 820,-1075.7546 820,-1083.4213 820,-1083.4213 820,-1087.2546 816.1667,-1091.0879 812.3333,-1091.0879"/>
<text text-anchor="middle" x="764" y="-1075.8879" font-family="Arial" font-size="14.00" fill="#c6c5fe">form/reducer.js</text>
</g>
<!-- ../render/content.jsx&#45;&gt;form/reducer.js -->
<g id="edge56" class="edge">
<title>../render/content.jsx&#45;&gt;form/reducer.js</title>
<path fill="none" stroke="#757575" d="M573.8163,-455.138C593.1245,-465.4191 618.4665,-482.4238 631,-505.5879 689.0763,-612.9237 589.5755,-959.252 667,-1053.5879 674.9859,-1063.3181 686.1827,-1069.628 698.144,-1073.6728"/>
<polygon fill="#757575" stroke="#757575" points="697.2768,-1077.0651 707.8539,-1076.4532 699.2038,-1070.3356 697.2768,-1077.0651"/>
</g>
<!-- ../render/modal.jsx&#45;&gt;modal/index.js -->
<g id="edge57" class="edge">
<title>../render/modal.jsx&#45;&gt;modal/index.js</title>
<path fill="none" stroke="#757575" d="M564.1963,-1073.1414C586.1708,-1088.8329 627.8204,-1116.841 667,-1133.5879 677.5395,-1138.0929 689.0629,-1141.9988 700.3697,-1145.3162"/>
<polygon fill="#757575" stroke="#757575" points="699.6464,-1148.7483 710.2201,-1148.0802 701.5376,-1142.0086 699.6464,-1148.7483"/>
</g>
<!-- ../render/product/list.jsx&#45;&gt;../product/action.js -->
<g id="edge60" class="edge">
<title>../render/product/list.jsx&#45;&gt;../product/action.js</title>
<path fill="none" stroke="#757575" d="M846.8398,-494.6765C852.0694,-497.5956 856.8777,-501.1862 861,-505.5879 935.3302,-584.9556 837.6104,-656.4996 897,-747.5879 909.5225,-766.7943 930.7163,-780.9227 949.7626,-790.5303"/>
<polygon fill="#757575" stroke="#757575" points="948.3601,-793.7391 958.8926,-794.8861 951.3742,-787.4212 948.3601,-793.7391"/>
</g>
<!-- ../render/product/list.jsx&#45;&gt;remote/constants.js -->
<g id="edge62" class="edge">
<title>../render/product/list.jsx&#45;&gt;remote/constants.js</title>
<path fill="none" stroke="#757575" d="M844.0996,-496.2881C850.084,-498.8287 855.8042,-501.8937 861,-505.5879 886.0353,-523.3879 873.8673,-544.3769 897,-564.5879 909.6012,-575.5975 925.6238,-584.0628 940.8308,-590.3631"/>
<polygon fill="#757575" stroke="#757575" points="939.5681,-593.6273 950.156,-594.0095 942.1173,-587.108 939.5681,-593.6273"/>
</g>
<!-- ../render/product/list.jsx&#45;&gt;../product/selector.js -->
<g id="edge61" class="edge">
<title>../render/product/list.jsx&#45;&gt;../product/selector.js</title>
<path fill="none" stroke="#757575" d="M838.2514,-473.0255C846.1015,-470.705 853.828,-467.9229 861,-464.5879 905.7652,-443.7726 949.001,-404.6967 972.4432,-381.4202"/>
<polygon fill="#757575" stroke="#757575" points="975.0609,-383.7509 979.6079,-374.1814 970.0857,-378.8266 975.0609,-383.7509"/>
</g>
<!-- ../render/user/login.jsx&#45;&gt;../user/action.js -->
<g id="edge65" class="edge">
<title>../render/user/login.jsx&#45;&gt;../user/action.js</title>
<path fill="none" stroke="#757575" d="M627.6879,-276.3024C709.1797,-271.7096 828.6633,-270.8165 861,-301.5879 913.6393,-351.6793 848.262,-572.693 897,-626.5879 904.1719,-634.5187 913.6542,-639.7246 923.8303,-643.0749"/>
<polygon fill="#757575" stroke="#757575" points="923.1802,-646.5245 933.7465,-645.7467 925.0014,-639.7655 923.1802,-646.5245"/>
</g>
<!-- ../render/user/login.jsx&#45;&gt;../render/user/remote.jsx -->
<g id="edge64" class="edge">
<title>../render/user/login.jsx&#45;&gt;../render/user/remote.jsx</title>
<path fill="none" stroke="#757575" d="M610.5424,-271.0719C636.0116,-266.3445 665.6631,-260.8407 692.0743,-255.9384"/>
<polygon fill="#757575" stroke="#757575" points="692.8292,-259.3582 702.0225,-254.0919 691.5516,-252.4757 692.8292,-259.3582"/>
</g>
<!-- ../user/selector.js -->
<g id="node36" class="node">
<title>../user/selector.js</title>
<path fill="none" stroke="#cfffac" d="M818.8333,-57.0879C818.8333,-57.0879 709.1667,-57.0879 709.1667,-57.0879 705.3333,-57.0879 701.5,-53.2546 701.5,-49.4213 701.5,-49.4213 701.5,-41.7546 701.5,-41.7546 701.5,-37.9213 705.3333,-34.0879 709.1667,-34.0879 709.1667,-34.0879 818.8333,-34.0879 818.8333,-34.0879 822.6667,-34.0879 826.5,-37.9213 826.5,-41.7546 826.5,-41.7546 826.5,-49.4213 826.5,-49.4213 826.5,-53.2546 822.6667,-57.0879 818.8333,-57.0879"/>
<text text-anchor="middle" x="764" y="-41.8879" font-family="Arial" font-size="14.00" fill="#cfffac">../user/selector.js</text>
</g>
<!-- ../render/user/login.jsx&#45;&gt;../user/selector.js -->
<g id="edge66" class="edge">
<title>../render/user/login.jsx&#45;&gt;../user/selector.js</title>
<path fill="none" stroke="#757575" d="M551.1865,-270.8815C560.2769,-234.0843 593.5091,-119.9803 667,-65.5879 674.3585,-60.1417 682.8519,-56.0958 691.6899,-53.1033"/>
<polygon fill="#757575" stroke="#757575" points="692.7722,-56.4332 701.3778,-50.2531 690.7965,-49.7178 692.7722,-56.4332"/>
</g>
<!-- ../render/user/remote.jsx&#45;&gt;../user/action.js -->
<g id="edge67" class="edge">
<title>../render/user/remote.jsx&#45;&gt;../user/action.js</title>
<path fill="none" stroke="#757575" d="M842.7056,-254.278C849.626,-257.931 855.9184,-262.6104 861,-268.5879 912.7883,-329.5064 843.6706,-567.0139 897,-626.5879 904.1317,-634.5548 913.5942,-639.7787 923.7628,-643.1355"/>
<polygon fill="#757575" stroke="#757575" points="923.1091,-646.5842 933.6756,-645.8105 924.9328,-639.826 923.1091,-646.5842"/>
</g>
<!-- ../render/user/remote.jsx&#45;&gt;remote/constants.js -->
<g id="edge69" class="edge">
<title>../render/user/remote.jsx&#45;&gt;remote/constants.js</title>
<path fill="none" stroke="#757575" d="M842.1156,-254.1457C849.2419,-257.8128 855.7421,-262.5319 861,-268.5879 947.8826,-368.6593 817.9326,-458.2337 897,-564.5879 905.3393,-575.8053 917.4133,-584.0023 930.1296,-589.9753"/>
<polygon fill="#757575" stroke="#757575" points="928.8862,-593.2498 939.4584,-593.9429 931.6259,-586.8082 928.8862,-593.2498"/>
</g>
<!-- ../render/user/remote.jsx&#45;&gt;../user/constants.js -->
<g id="edge68" class="edge">
<title>../render/user/remote.jsx&#45;&gt;../user/constants.js</title>
<path fill="none" stroke="#757575" d="M839.11,-254.292C847.1636,-257.8963 854.7018,-262.5609 861,-268.5879 899.388,-305.3231 871.7947,-335.814 897,-382.5879 917.2209,-420.1123 950.4235,-457.2272 971.3399,-478.7499"/>
<polygon fill="#757575" stroke="#757575" points="968.9272,-481.2878 978.4433,-485.9457 973.9089,-476.3702 968.9272,-481.2878"/>
</g>
<!-- ../render/category/select.jsx&#45;&gt;../category/selector.js -->
<g id="edge44" class="edge">
<title>../render/category/select.jsx&#45;&gt;../category/selector.js</title>
<path fill="none" stroke="#757575" d="M861.0575,-94.743C925.0977,-101.5355 1010.437,-113.292 1084,-132.5879 1113.1379,-140.231 1144.8932,-152.8015 1168.1906,-162.8718"/>
<polygon fill="#757575" stroke="#757575" points="1167.0616,-166.1985 1177.625,-167.0129 1169.875,-159.7888 1167.0616,-166.1985"/>
</g>
<!-- ../render/category/select.jsx&#45;&gt;../render/category/input.jsx -->
<g id="edge45" class="edge">
<title>../render/category/select.jsx&#45;&gt;../render/category/input.jsx</title>
<path fill="none" stroke="#757575" d="M809.0292,-98.2092C825.4336,-102.561 844.0975,-107.6497 861,-112.5879 889.3766,-120.8785 921.015,-130.881 945.9162,-138.9308"/>
<polygon fill="#757575" stroke="#757575" points="944.8611,-142.268 955.4531,-142.0247 947.0212,-135.6096 944.8611,-142.268"/>
</g>
<!-- remote/reducer.js&#45;&gt;../category/action.js -->
<g id="edge102" class="edge">
<title>remote/reducer.js&#45;&gt;../category/action.js</title>
<path fill="none" stroke="#757575" d="M825.3124,-859.0884C837.5729,-862.7322 850.0405,-867.4669 861,-873.5879 880.2141,-884.3194 876.5492,-899.4571 897,-907.5879 974.231,-938.2933 1003.2257,-927.1576 1084,-907.5879 1118.7424,-899.1707 1154.7087,-878.697 1177.7688,-863.7841"/>
<polygon fill="#757575" stroke="#757575" points="1179.8288,-866.6179 1186.2367,-858.1805 1175.9658,-860.7803 1179.8288,-866.6179"/>
</g>
<!-- remote/reducer.js&#45;&gt;../user/action.js -->
<g id="edge103" class="edge">
<title>remote/reducer.js&#45;&gt;../user/action.js</title>
<path fill="none" stroke="#757575" d="M828.1608,-844.4165C840.2149,-841.2023 851.8784,-835.9583 861,-827.5879 902.3398,-789.6529 863.2806,-751.4327 897,-706.5879 911.3443,-687.5109 933.6691,-672.857 952.907,-662.8079"/>
<polygon fill="#757575" stroke="#757575" points="954.6681,-665.8407 962.0546,-658.2453 951.5437,-659.5767 954.6681,-665.8407"/>
</g>
<!-- remote/reducer.js&#45;&gt;remote/api.js -->
<g id="edge104" class="edge">
<title>remote/reducer.js&#45;&gt;remote/api.js</title>
<path fill="none" stroke="#757575" d="M828.3,-858.6594C860.5182,-864.207 899.2814,-870.8814 930.8334,-876.3142"/>
<polygon fill="#757575" stroke="#757575" points="930.3578,-879.7838 940.8067,-878.0315 931.5457,-872.8853 930.3578,-879.7838"/>
</g>
<!-- ../render/product/item.jsx&#45;&gt;../product/action.js -->
<g id="edge58" class="edge">
<title>../render/product/item.jsx&#45;&gt;../product/action.js</title>
<path fill="none" stroke="#757575" d="M849.5823,-455.1529C853.7665,-457.7868 857.6231,-460.9049 861,-464.5879 946.6866,-558.043 828.8779,-640.6514 897,-747.5879 909.3188,-766.9256 930.4989,-781.0628 949.5886,-790.6424"/>
<polygon fill="#757575" stroke="#757575" points="948.2086,-793.8615 958.744,-794.9818 951.2067,-787.536 948.2086,-793.8615"/>
</g>
<!-- ../render/product/item.jsx&#45;&gt;../product/selector.js -->
<g id="edge59" class="edge">
<title>../render/product/item.jsx&#45;&gt;../product/selector.js</title>
<path fill="none" stroke="#757575" d="M827.1648,-432.0303C838.5481,-429.3505 850.218,-426.2034 861,-422.5879 896.1513,-410.8009 934.4509,-392.2958 960.2107,-378.9522"/>
<polygon fill="#757575" stroke="#757575" points="961.8716,-382.0333 969.1047,-374.2916 958.6226,-375.833 961.8716,-382.0333"/>
</g>
<!-- form/reducer.js&#45;&gt;form/constants.js -->
<g id="edge99" class="edge">
<title>form/reducer.js&#45;&gt;form/constants.js</title>
<path fill="none" stroke="#757575" d="M820.2798,-1079.5879C849.599,-1079.5879 885.8066,-1079.5879 917.2801,-1079.5879"/>
<polygon fill="#757575" stroke="#757575" points="917.3178,-1083.088 927.3177,-1079.5879 917.3177,-1076.088 917.3178,-1083.088"/>
</g>
<!-- form/reducer.js&#45;&gt;form/action.js -->
<g id="edge98" class="edge">
<title>form/reducer.js&#45;&gt;form/action.js</title>
<path fill="none" stroke="#757575" d="M820.2798,-1069.4004C853.288,-1063.4254 895.0269,-1055.87 928.9122,-1049.7363"/>
<polygon fill="#757575" stroke="#757575" points="929.9412,-1053.107 939.1578,-1047.8817 928.6943,-1046.2189 929.9412,-1053.107"/>
</g>
<!-- ../render/react.jsx -->
<g id="node35" class="node">
<title>../render/react.jsx</title>
<path fill="none" stroke="#c6c5fe" d="M228.3333,-616.0879C228.3333,-616.0879 115.6667,-616.0879 115.6667,-616.0879 111.8333,-616.0879 108,-612.2546 108,-608.4213 108,-608.4213 108,-600.7546 108,-600.7546 108,-596.9213 111.8333,-593.0879 115.6667,-593.0879 115.6667,-593.0879 228.3333,-593.0879 228.3333,-593.0879 232.1667,-593.0879 236,-596.9213 236,-600.7546 236,-600.7546 236,-608.4213 236,-608.4213 236,-612.2546 232.1667,-616.0879 228.3333,-616.0879"/>
<text text-anchor="middle" x="172" y="-600.8879" font-family="Arial" font-size="14.00" fill="#c6c5fe">../render/react.jsx</text>
</g>
<!-- ../render/react.jsx&#45;&gt;../render/app.jsx -->
<g id="edge63" class="edge">
<title>../render/react.jsx&#45;&gt;../render/app.jsx</title>
<path fill="none" stroke="#757575" d="M185.089,-593.0092C216.1567,-565.5262 294.5841,-496.1481 332.6358,-462.487"/>
<polygon fill="#757575" stroke="#757575" points="335.3676,-464.7434 340.5386,-455.4961 330.7296,-459.5004 335.3676,-464.7434"/>
</g>
<!-- ../store/index.dev.js -->
<g id="node38" class="node">
<title>../store/index.dev.js</title>
<path fill="none" stroke="#c6c5fe" d="M234.3333,-818.0879C234.3333,-818.0879 109.6667,-818.0879 109.6667,-818.0879 105.8333,-818.0879 102,-814.2546 102,-810.4213 102,-810.4213 102,-802.7546 102,-802.7546 102,-798.9213 105.8333,-795.0879 109.6667,-795.0879 109.6667,-795.0879 234.3333,-795.0879 234.3333,-795.0879 238.1667,-795.0879 242,-798.9213 242,-802.7546 242,-802.7546 242,-810.4213 242,-810.4213 242,-814.2546 238.1667,-818.0879 234.3333,-818.0879"/>
<text text-anchor="middle" x="172" y="-802.8879" font-family="Arial" font-size="14.00" fill="#c6c5fe">../store/index.dev.js</text>
</g>
<!-- ../store/middleware.js -->
<g id="node39" class="node">
<title>../store/middleware.js</title>
<path fill="none" stroke="#c6c5fe" d="M422.3333,-1073.0879C422.3333,-1073.0879 285.6667,-1073.0879 285.6667,-1073.0879 281.8333,-1073.0879 278,-1069.2546 278,-1065.4213 278,-1065.4213 278,-1057.7546 278,-1057.7546 278,-1053.9213 281.8333,-1050.0879 285.6667,-1050.0879 285.6667,-1050.0879 422.3333,-1050.0879 422.3333,-1050.0879 426.1667,-1050.0879 430,-1053.9213 430,-1057.7546 430,-1057.7546 430,-1065.4213 430,-1065.4213 430,-1069.2546 426.1667,-1073.0879 422.3333,-1073.0879"/>
<text text-anchor="middle" x="354" y="-1057.8879" font-family="Arial" font-size="14.00" fill="#c6c5fe">../store/middleware.js</text>
</g>
<!-- ../store/index.dev.js&#45;&gt;../store/middleware.js -->
<g id="edge70" class="edge">
<title>../store/index.dev.js&#45;&gt;../store/middleware.js</title>
<path fill="none" stroke="#757575" d="M180.2931,-818.2074C208.8953,-858.2818 303.6432,-991.0331 339.8052,-1041.6996"/>
<polygon fill="#757575" stroke="#757575" points="337,-1043.794 345.6582,-1049.9002 342.6976,-1039.7274 337,-1043.794"/>
</g>
<!-- ../store/reducers.js -->
<g id="node40" class="node">
<title>../store/reducers.js</title>
<path fill="none" stroke="#c6c5fe" d="M608.3333,-818.0879C608.3333,-818.0879 488.6667,-818.0879 488.6667,-818.0879 484.8333,-818.0879 481,-814.2546 481,-810.4213 481,-810.4213 481,-802.7546 481,-802.7546 481,-798.9213 484.8333,-795.0879 488.6667,-795.0879 488.6667,-795.0879 608.3333,-795.0879 608.3333,-795.0879 612.1667,-795.0879 616,-798.9213 616,-802.7546 616,-802.7546 616,-810.4213 616,-810.4213 616,-814.2546 612.1667,-818.0879 608.3333,-818.0879"/>
<text text-anchor="middle" x="548.5" y="-802.8879" font-family="Arial" font-size="14.00" fill="#c6c5fe">../store/reducers.js</text>
</g>
<!-- ../store/index.dev.js&#45;&gt;../store/reducers.js -->
<g id="edge71" class="edge">
<title>../store/index.dev.js&#45;&gt;../store/reducers.js</title>
<path fill="none" stroke="#757575" d="M242.3751,-806.5879C307.2587,-806.5879 403.4032,-806.5879 470.5802,-806.5879"/>
<polygon fill="#757575" stroke="#757575" points="470.6886,-810.088 480.6886,-806.5879 470.6886,-803.088 470.6886,-810.088"/>
</g>
<!-- ../store/middleware.js&#45;&gt;remote/api.js -->
<g id="edge76" class="edge">
<title>../store/middleware.js&#45;&gt;remote/api.js</title>
<path fill="none" stroke="#757575" d="M356.8433,-1073.3846C366.1316,-1109.5011 398.9168,-1219.7919 466,-1280.5879 598.6587,-1400.8136 727.9254,-1479.3531 861,-1359.5879 917.6386,-1308.614 870.1044,-1089.8824 897,-1018.5879 914.0099,-973.4983 950.2278,-929.5464 972.2597,-905.4668"/>
<polygon fill="#757575" stroke="#757575" points="974.8789,-907.7901 979.1393,-898.0897 969.7595,-903.016 974.8789,-907.7901"/>
</g>
<!-- ../store/middleware.js&#45;&gt;../category/repository.js -->
<g id="edge72" class="edge">
<title>../store/middleware.js&#45;&gt;../category/repository.js</title>
<path fill="none" stroke="#757575" d="M377.0755,-1049.9612C411.5843,-1032.5738 476.7716,-999.7287 516.0587,-979.9337"/>
<polygon fill="#757575" stroke="#757575" points="518.099,-982.8249 525.4545,-975.1995 514.9492,-976.5736 518.099,-982.8249"/>
</g>
<!-- ../store/middleware.js&#45;&gt;../user/repository.js -->
<g id="edge74" class="edge">
<title>../store/middleware.js&#45;&gt;../user/repository.js</title>
<path fill="none" stroke="#757575" d="M355.9154,-1049.9557C363.1648,-1009.1464 392.3393,-870.435 466,-786.5879 527.6309,-716.4342 631.9558,-678.8051 699.3877,-660.7583"/>
<polygon fill="#757575" stroke="#757575" points="700.6752,-664.0398 709.4701,-658.1321 698.9107,-657.2658 700.6752,-664.0398"/>
</g>
<!-- ../store/middleware.js&#45;&gt;../product/repository.js -->
<g id="edge73" class="edge">
<title>../store/middleware.js&#45;&gt;../product/repository.js</title>
<path fill="none" stroke="#757575" d="M364.616,-1073.2647C384.2808,-1094.8043 427.8485,-1142.106 466,-1180.5879 486.8772,-1201.646 511.5128,-1225.057 528.3932,-1240.8876"/>
<polygon fill="#757575" stroke="#757575" points="526.3118,-1243.7331 536.0066,-1248.0066 531.0928,-1238.6201 526.3118,-1243.7331"/>
</g>
<!-- form/controller.js -->
<g id="node41" class="node">
<title>form/controller.js</title>
<path fill="none" stroke="#c6c5fe" d="M601.8333,-1171.0879C601.8333,-1171.0879 495.1667,-1171.0879 495.1667,-1171.0879 491.3333,-1171.0879 487.5,-1167.2546 487.5,-1163.4213 487.5,-1163.4213 487.5,-1155.7546 487.5,-1155.7546 487.5,-1151.9213 491.3333,-1148.0879 495.1667,-1148.0879 495.1667,-1148.0879 601.8333,-1148.0879 601.8333,-1148.0879 605.6667,-1148.0879 609.5,-1151.9213 609.5,-1155.7546 609.5,-1155.7546 609.5,-1163.4213 609.5,-1163.4213 609.5,-1167.2546 605.6667,-1171.0879 601.8333,-1171.0879"/>
<text text-anchor="middle" x="548.5" y="-1155.8879" font-family="Arial" font-size="14.00" fill="#c6c5fe">form/controller.js</text>
</g>
<!-- ../store/middleware.js&#45;&gt;form/controller.js -->
<g id="edge75" class="edge">
<title>../store/middleware.js&#45;&gt;form/controller.js</title>
<path fill="none" stroke="#757575" d="M377.0755,-1073.2147C411.5843,-1090.6021 476.7716,-1123.4471 516.0587,-1143.2422"/>
<polygon fill="#757575" stroke="#757575" points="514.9492,-1146.6023 525.4545,-1147.9763 518.099,-1140.351 514.9492,-1146.6023"/>
</g>
<!-- ../store/reducers.js&#45;&gt;../category/reducer.js -->
<g id="edge77" class="edge">
<title>../store/reducers.js&#45;&gt;../category/reducer.js</title>
<path fill="none" stroke="#757575" d="M579.8356,-794.9552C617.7686,-780.8734 681.7337,-757.1276 723.408,-741.6569"/>
<polygon fill="#757575" stroke="#757575" points="724.8195,-744.8664 732.9763,-738.1049 722.3833,-738.304 724.8195,-744.8664"/>
</g>
<!-- ../store/reducers.js&#45;&gt;modal/index.js -->
<g id="edge82" class="edge">
<title>../store/reducers.js&#45;&gt;modal/index.js</title>
<path fill="none" stroke="#757575" d="M557.3852,-818.3676C574.2355,-841.2646 610.9394,-893.8995 631,-943.5879 657.8005,-1009.9707 625.1213,-1042.5267 667,-1100.5879 680.9358,-1119.9088 703.3331,-1134.1368 723.0963,-1143.7745"/>
<polygon fill="#757575" stroke="#757575" points="721.6987,-1146.9843 732.2438,-1148.01 724.64,-1140.6322 721.6987,-1146.9843"/>
</g>
<!-- ../store/reducers.js&#45;&gt;../product/reducer.js -->
<g id="edge78" class="edge">
<title>../store/reducers.js&#45;&gt;../product/reducer.js</title>
<path fill="none" stroke="#757575" d="M616.0943,-806.5879C636.98,-806.5879 660.2146,-806.5879 681.9646,-806.5879"/>
<polygon fill="#757575" stroke="#757575" points="682.1715,-810.088 692.1714,-806.5879 682.1714,-803.088 682.1715,-810.088"/>
</g>
<!-- ../store/reducers.js&#45;&gt;error.js -->
<g id="edge80" class="edge">
<title>../store/reducers.js&#45;&gt;error.js</title>
<path fill="none" stroke="#757575" d="M550.3624,-794.8251C557.4105,-754.3247 586.2713,-619.4239 667,-551.5879 682.8402,-538.2775 704.8389,-531.7203 723.8825,-528.5156"/>
<polygon fill="#757575" stroke="#757575" points="724.4086,-531.9761 733.811,-527.0928 723.4156,-525.0468 724.4086,-531.9761"/>
</g>
<!-- ../store/reducers.js&#45;&gt;remote/reducer.js -->
<g id="edge83" class="edge">
<title>../store/reducers.js&#45;&gt;remote/reducer.js</title>
<path fill="none" stroke="#757575" d="M609.1022,-818.1178C635.3796,-823.1172 666.3171,-829.0033 693.6062,-834.1951"/>
<polygon fill="#757575" stroke="#757575" points="693.0016,-837.6428 703.4796,-836.0736 694.31,-830.7662 693.0016,-837.6428"/>
</g>
<!-- ../store/reducers.js&#45;&gt;form/reducer.js -->
<g id="edge81" class="edge">
<title>../store/reducers.js&#45;&gt;form/reducer.js</title>
<path fill="none" stroke="#757575" d="M556.7293,-818.1843C572.7658,-841.1877 608.5874,-894.6096 631,-943.5879 652.4046,-990.3636 629.6503,-1018.2167 667,-1053.5879 675.703,-1061.8299 686.7274,-1067.5202 698.1986,-1071.435"/>
<polygon fill="#757575" stroke="#757575" points="697.3153,-1074.8238 707.8983,-1074.3228 699.3128,-1068.1148 697.3153,-1074.8238"/>
</g>
<!-- ../user/reducer.js -->
<g id="node42" class="node">
<title>../user/reducer.js</title>
<path fill="none" stroke="#c6c5fe" d="M817.8333,-617.0879C817.8333,-617.0879 710.1667,-617.0879 710.1667,-617.0879 706.3333,-617.0879 702.5,-613.2546 702.5,-609.4213 702.5,-609.4213 702.5,-601.7546 702.5,-601.7546 702.5,-597.9213 706.3333,-594.0879 710.1667,-594.0879 710.1667,-594.0879 817.8333,-594.0879 817.8333,-594.0879 821.6667,-594.0879 825.5,-597.9213 825.5,-601.7546 825.5,-601.7546 825.5,-609.4213 825.5,-609.4213 825.5,-613.2546 821.6667,-617.0879 817.8333,-617.0879"/>
<text text-anchor="middle" x="764" y="-601.8879" font-family="Arial" font-size="14.00" fill="#c6c5fe">../user/reducer.js</text>
</g>
<!-- ../store/reducers.js&#45;&gt;../user/reducer.js -->
<g id="edge79" class="edge">
<title>../store/reducers.js&#45;&gt;../user/reducer.js</title>
<path fill="none" stroke="#757575" d="M552.4941,-795.0847C564.3347,-762.7948 602.5022,-670.798 667,-626.5879 674.6712,-621.3297 683.4198,-617.3552 692.4504,-614.3569"/>
<polygon fill="#757575" stroke="#757575" points="693.7057,-617.6365 702.3226,-611.472 691.7422,-610.9175 693.7057,-617.6365"/>
</g>
<!-- form/controller.js&#45;&gt;../product/action.js -->
<g id="edge90" class="edge">
<title>form/controller.js&#45;&gt;../product/action.js</title>
<path fill="none" stroke="#757575" d="M597.983,-1171.1264C676.1887,-1188.0512 823.3618,-1214.1575 861,-1180.5879 913.4157,-1133.8383 859.8583,-926.1986 897,-866.5879 909.2714,-846.8929 930.66,-832.4577 949.8857,-822.6885"/>
<polygon fill="#757575" stroke="#757575" points="951.6002,-825.7479 959.1006,-818.2649 948.5708,-819.4373 951.6002,-825.7479"/>
</g>
<!-- form/controller.js&#45;&gt;modal/index.js -->
<g id="edge97" class="edge">
<title>form/controller.js&#45;&gt;modal/index.js</title>
<path fill="none" stroke="#757575" d="M609.6772,-1159.5879C637.4945,-1159.5879 670.4399,-1159.5879 698.7324,-1159.5879"/>
<polygon fill="#757575" stroke="#757575" points="698.9274,-1163.088 708.9274,-1159.5879 698.9273,-1156.088 698.9274,-1163.088"/>
</g>
<!-- form/controller.js&#45;&gt;../product/reducer.js -->
<g id="edge91" class="edge">
<title>form/controller.js&#45;&gt;../product/reducer.js</title>
<path fill="none" stroke="#757575" d="M567.0571,-1147.9439C586.4763,-1134.6726 616.1609,-1111.0872 631,-1082.5879 683.8599,-981.0681 589.072,-911.4191 667,-827.5879 671.5422,-822.7016 676.9293,-818.813 682.8019,-815.7321"/>
<polygon fill="#757575" stroke="#757575" points="684.6285,-818.7527 692.3781,-811.5281 681.8146,-812.3431 684.6285,-818.7527"/>
</g>
<!-- form/controller.js&#45;&gt;form/constants.js -->
<g id="edge95" class="edge">
<title>form/controller.js&#45;&gt;form/constants.js</title>
<path fill="none" stroke="#757575" d="M562.3977,-1171.1173C579.6975,-1185.8837 609.5742,-1212.7827 631,-1239.5879 650.1794,-1263.5828 640.2129,-1283.5527 667,-1298.5879 742.1882,-1340.79 786.1058,-1341.3095 861,-1298.5879 937.1902,-1255.1271 973.1006,-1147.3159 985.3767,-1101.1391"/>
<polygon fill="#757575" stroke="#757575" points="988.8096,-1101.8407 987.8821,-1091.2865 982.0255,-1100.1155 988.8096,-1101.8407"/>
</g>
<!-- form/controller.js&#45;&gt;../product/selector.js -->
<g id="edge92" class="edge">
<title>form/controller.js&#45;&gt;../product/selector.js</title>
<path fill="none" stroke="#757575" d="M567.9178,-1147.9485C587.7633,-1134.8408 617.5252,-1111.541 631,-1082.5879 663.9081,-1011.8791 612.0548,-436.9387 667,-381.5879 699.4692,-348.8791 822.8832,-350.2551 907.5334,-355.485"/>
<polygon fill="#757575" stroke="#757575" points="907.4506,-358.9868 917.6557,-356.1398 907.9026,-352.0014 907.4506,-358.9868"/>
</g>
<!-- form/controller.js&#45;&gt;../product/validation.js -->
<g id="edge93" class="edge">
<title>form/controller.js&#45;&gt;../product/validation.js</title>
<path fill="none" stroke="#757575" d="M560.1789,-1171.3135C580.2565,-1190.8182 623.3803,-1229.9208 667,-1251.5879 676.1705,-1256.1431 686.2385,-1259.9767 696.3096,-1263.18"/>
<polygon fill="#757575" stroke="#757575" points="695.3535,-1266.5472 705.9372,-1266.061 697.3604,-1259.841 695.3535,-1266.5472"/>
</g>
<!-- form/controller.js&#45;&gt;form/action.js -->
<g id="edge94" class="edge">
<title>form/controller.js&#45;&gt;form/action.js</title>
<path fill="none" stroke="#757575" d="M566.3693,-1171.1516C618.161,-1203.0722 770.4154,-1285.4391 861,-1213.5879 916.0694,-1169.9072 847.0817,-1109.0733 897,-1059.5879 905.7691,-1050.8948 917.3125,-1045.4772 929.2844,-1042.1665"/>
<polygon fill="#757575" stroke="#757575" points="930.4221,-1045.4967 939.3901,-1039.8554 928.8615,-1038.6729 930.4221,-1045.4967"/>
</g>
<!-- form/controller.js&#45;&gt;form/reducer.js -->
<g id="edge96" class="edge">
<title>form/controller.js&#45;&gt;form/reducer.js</title>
<path fill="none" stroke="#757575" d="M579.8356,-1147.9552C617.7686,-1133.8734 681.7337,-1110.1276 723.408,-1094.6569"/>
<polygon fill="#757575" stroke="#757575" points="724.8195,-1097.8664 732.9763,-1091.1049 722.3833,-1091.304 724.8195,-1097.8664"/>
</g>
<!-- ../user/reducer.js&#45;&gt;../user/action.js -->
<g id="edge84" class="edge">
<title>../user/reducer.js&#45;&gt;../user/action.js</title>
<path fill="none" stroke="#757575" d="M825.5929,-616.7372C856.09,-622.2576 892.9476,-628.9294 924.0763,-634.5642"/>
<polygon fill="#757575" stroke="#757575" points="923.5028,-638.0172 933.9664,-636.3545 924.7497,-631.1291 923.5028,-638.0172"/>
</g>
<!-- ../user/reducer.js&#45;&gt;remote/constants.js -->
<g id="edge85" class="edge">
<title>../user/reducer.js&#45;&gt;remote/constants.js</title>
<path fill="none" stroke="#757575" d="M825.5929,-605.5879C851.1478,-605.5879 881.1689,-605.5879 908.5429,-605.5879"/>
<polygon fill="#757575" stroke="#757575" points="908.8899,-609.088 918.8899,-605.5879 908.8898,-602.088 908.8899,-609.088"/>
</g>
<!-- index.js -->
<g id="node43" class="node">
<title>index.js</title>
<path fill="none" stroke="#c6c5fe" d="M58.3333,-636.0879C58.3333,-636.0879 7.6667,-636.0879 7.6667,-636.0879 3.8333,-636.0879 0,-632.2546 0,-628.4213 0,-628.4213 0,-620.7546 0,-620.7546 0,-616.9213 3.8333,-613.0879 7.6667,-613.0879 7.6667,-613.0879 58.3333,-613.0879 58.3333,-613.0879 62.1667,-613.0879 66,-616.9213 66,-620.7546 66,-620.7546 66,-628.4213 66,-628.4213 66,-632.2546 62.1667,-636.0879 58.3333,-636.0879"/>
<text text-anchor="middle" x="33" y="-620.8879" font-family="Arial" font-size="14.00" fill="#c6c5fe">index.js</text>
</g>
<!-- index.js&#45;&gt;../render/react.jsx -->
<g id="edge100" class="edge">
<title>index.js&#45;&gt;../render/react.jsx</title>
<path fill="none" stroke="#757575" d="M66.294,-619.7974C75.8867,-618.4172 86.7563,-616.8532 97.7849,-615.2664"/>
<polygon fill="#757575" stroke="#757575" points="98.5263,-618.6958 107.9258,-613.8072 97.5293,-611.7672 98.5263,-618.6958"/>
</g>
<!-- index.js&#45;&gt;../store/index.dev.js -->
<g id="edge101" class="edge">
<title>index.js&#45;&gt;../store/index.dev.js</title>
<path fill="none" stroke="#757575" d="M41.9065,-636.2497C65.0939,-666.6102 127.5471,-748.3834 156.6649,-786.5089"/>
<polygon fill="#757575" stroke="#757575" points="154.1365,-788.9648 162.9878,-794.7877 159.6996,-784.716 154.1365,-788.9648"/>
</g>
</g>
</svg>
